<svg version="1.1" viewBox="150.0 120.0 710.0 470.0" fill="none" stroke="none" stroke-linecap="square" stroke-miterlimit="10" xmlns:xlink="http://www.w3.org/1999/xlink" xmlns="http://www.w3.org/2000/svg"><clipPath id="p.0"><path d="m0 0l1024.0 0l0 768.0l-1024.0 0l0 -768.0z" clip-rule="nonzero"/></clipPath><g clip-path="url(#p.0)"><path fill="#000000" fill-opacity="0.0" d="m0 0l1024.0 0l0 768.0l-1024.0 0z" fill-rule="evenodd"/><path fill="#f3f3f3" d="m423.3727 468.6929l0 0c0 -43.773987 35.48584 -79.25983 79.25983 -79.25983l0 0c21.021027 0 41.18106 8.350555 56.045197 23.21466c14.864075 14.864105 23.21466 35.02417 23.21466 56.045166l0 0c0 43.774017 -35.48584 79.25986 -79.25986 79.25986l0 0c-43.773987 0 -79.25983 -35.48584 -79.25983 -79.25986z" fill-rule="evenodd"/><path stroke="#000000" stroke-width="1.0" stroke-linejoin="round" stroke-linecap="butt" d="m423.3727 468.6929l0 0c0 -43.773987 35.48584 -79.25983 79.25983 -79.25983l0 0c21.021027 0 41.18106 8.350555 56.045197 23.21466c14.864075 14.864105 23.21466 35.02417 23.21466 56.045166l0 0c0 43.774017 -35.48584 79.25986 -79.25986 79.25986l0 0c-43.773987 0 -79.25983 -35.48584 -79.25983 -79.25986z" fill-rule="evenodd"/><path fill="#f4cccc" d="m478.93176 385.85303l0 0c0 -12.706909 10.300964 -23.007874 23.007874 -23.007874l0 0c6.102051 0 11.954224 2.4240417 16.269043 6.7388306c4.3148193 4.3148193 6.7388306 10.166962 6.7388306 16.269043l0 0c0 12.706879 -10.300964 23.007874 -23.007874 23.007874l0 0c-12.706909 0 -23.007874 -10.300995 -23.007874 -23.007874z" fill-rule="evenodd"/><path stroke="#000000" stroke-width="1.0" stroke-linejoin="round" stroke-linecap="butt" d="m478.93176 385.85303l0 0c0 -12.706909 10.300964 -23.007874 23.007874 -23.007874l0 0c6.102051 0 11.954224 2.4240417 16.269043 6.7388306c4.3148193 4.3148193 6.7388306 10.166962 6.7388306 16.269043l0 0c0 12.706879 -10.300964 23.007874 -23.007874 23.007874l0 0c-12.706909 0 -23.007874 -10.300995 -23.007874 -23.007874z" fill-rule="evenodd"/><path fill="#000000" fill-opacity="0.0" d="m470.93176 364.97375l63.40155 0l0 42.015747l-63.40155 0z" fill-rule="evenodd"/><path fill="#000000" d="m496.1664 391.89374l0 -5.65625l-5.15625 -7.703125l2.15625 0l2.640625 4.03125q0.71875 1.125 1.34375 2.265625q0.609375 -1.046875 1.46875 -2.359375l2.578125 -3.9375l2.0625 0l-5.328125 7.703125l0 5.65625l-1.765625 0zm11.912323 -2.15625l0 -3.671875l-3.640625 0l0 -1.515625l3.640625 0l0 -3.640625l1.546875 0l0 3.640625l3.640625 0l0 1.515625l-3.640625 0l0 3.671875l-1.546875 0z" fill-rule="nonzero"/><path fill="#cfe2f3" d="m480.3176 550.43304l0 0c0 -12.706848 10.300964 -23.007874 23.007874 -23.007874l0 0c6.102051 0 11.954193 2.4240723 16.269012 6.7388916c4.3148193 4.3148193 6.7388306 10.166931 6.7388306 16.268982l0 0c0 12.706909 -10.300964 23.007874 -23.007843 23.007874l0 0c-12.706909 0 -23.007874 -10.300964 -23.007874 -23.007874z" fill-rule="evenodd"/><path stroke="#000000" stroke-width="1.0" stroke-linejoin="round" stroke-linecap="butt" d="m480.3176 550.43304l0 0c0 -12.706848 10.300964 -23.007874 23.007874 -23.007874l0 0c6.102051 0 11.954193 2.4240723 16.269012 6.7388916c4.3148193 4.3148193 6.7388306 10.166931 6.7388306 16.268982l0 0c0 12.706909 -10.300964 23.007874 -23.007843 23.007874l0 0c-12.706909 0 -23.007874 -10.300964 -23.007874 -23.007874z" fill-rule="evenodd"/><path fill="#000000" fill-opacity="0.0" d="m471.62466 529.4252l63.40158 0l0 42.015747l-63.40158 0z" fill-rule="evenodd"/><path fill="#000000" d="m500.05722 556.3452l0 -5.65625l-5.15625 -7.703125l2.15625 0l2.640625 4.03125q0.71875 1.125 1.34375 2.265625q0.609375 -1.046875 1.46875 -2.359375l2.578125 -3.9375l2.0625 0l-5.328125 7.703125l0 5.65625l-1.765625 0zm6.1206665 -4.015625l0 -1.640625l5.03125 0l0 1.640625l-5.03125 0z" fill-rule="nonzero"/><path fill="#f4cccc" d="m562.0971 468.6929l0 0c0 -12.706879 10.300964 -23.007874 23.007874 -23.007874l0 0c6.102051 0 11.954224 2.4240417 16.269043 6.738861c4.3148193 4.3148193 6.7388306 10.166962 6.7388306 16.269012l0 0c0 12.706909 -10.300964 23.007874 -23.007874 23.007874l0 0c-12.706909 0 -23.007874 -10.300964 -23.007874 -23.007874z" fill-rule="evenodd"/><path stroke="#000000" stroke-width="1.0" stroke-linejoin="round" stroke-linecap="butt" d="m562.0971 468.6929l0 0c0 -12.706879 10.300964 -23.007874 23.007874 -23.007874l0 0c6.102051 0 11.954224 2.4240417 16.269043 6.738861c4.3148193 4.3148193 6.7388306 10.166962 6.7388306 16.269012l0 0c0 12.706909 -10.300964 23.007874 -23.007874 23.007874l0 0c-12.706909 0 -23.007874 -10.300964 -23.007874 -23.007874z" fill-rule="evenodd"/><path fill="#000000" fill-opacity="0.0" d="m554.0971 447.81366l63.40155 0l0 42.015747l-63.40155 0z" fill-rule="evenodd"/><path fill="#000000" d="m574.2068 474.73364l5.171875 -6.953125l-4.5625 -6.40625l2.109375 0l2.421875 3.4375q0.75 1.0625 1.078125 1.625q0.4375 -0.71875 1.046875 -1.515625l2.6875 -3.546875l1.921875 0l-4.6875 6.296875l5.0625 7.0625l-2.1875 0l-3.359375 -4.765625q-0.28125 -0.40625 -0.59375 -0.890625q-0.4375 0.734375 -0.625 1.0l-3.359375 4.65625l-2.125 0zm17.037292 -2.15625l0 -3.671875l-3.640625 0l0 -1.515625l3.640625 0l0 -3.640625l1.546875 0l0 3.640625l3.640625 0l0 1.515625l-3.640625 0l0 3.671875l-1.546875 0z" fill-rule="nonzero"/><path fill="#cfe2f3" d="m401.1811 468.82153l0 0c0 -12.706909 10.300995 -23.007874 23.007874 -23.007874l0 0c6.1020813 0 11.954224 2.4240112 16.269043 6.7388306c4.3148193 4.3148193 6.7388306 10.166962 6.7388306 16.269043l0 0c0 12.706879 -10.300964 23.007874 -23.007874 23.007874l0 0c-12.706879 0 -23.007874 -10.300995 -23.007874 -23.007874z" fill-rule="evenodd"/><path stroke="#000000" stroke-width="1.0" stroke-linejoin="round" stroke-linecap="butt" d="m401.1811 468.82153l0 0c0 -12.706909 10.300995 -23.007874 23.007874 -23.007874l0 0c6.1020813 0 11.954224 2.4240112 16.269043 6.7388306c4.3148193 4.3148193 6.7388306 10.166962 6.7388306 16.269043l0 0c0 12.706879 -10.300964 23.007874 -23.007874 23.007874l0 0c-12.706879 0 -23.007874 -10.300995 -23.007874 -23.007874z" fill-rule="evenodd"/><path fill="#000000" fill-opacity="0.0" d="m392.4882 447.81366l63.40158 0l0 42.015747l-63.40158 0z" fill-rule="evenodd"/><path fill="#000000" d="m414.93896 474.73364l5.171875 -6.953125l-4.5625 -6.40625l2.109375 0l2.421875 3.4375q0.75 1.0625 1.078125 1.625q0.4375 -0.71875 1.046875 -1.515625l2.6875 -3.546875l1.921875 0l-4.6875 6.296875l5.0625 7.0625l-2.1875 0l-3.359375 -4.765625q-0.28125 -0.40625 -0.59375 -0.890625q-0.4375 0.734375 -0.625 1.0l-3.359375 4.65625l-2.125 0zm12.959198 -4.015625l0 -1.640625l5.03125 0l0 1.640625l-5.03125 0z" fill-rule="nonzero"/><path fill="#f3f3f3" d="m452.5013 466.75067l8.120117 -7.1306458l0 4.3506775l6.7921143 0l0 -35.139557l34.386536 0l0 -7.0942383l-4.350647 0l7.130615 -8.120117l7.130615 8.120117l-4.350647 0l0 7.0942383l34.386566 0l0 35.139557l6.7921143 0l0 -4.3506775l8.120117 7.1306458l-8.120117 7.130615l0 -4.3506775l-6.7921143 0l0 35.139557l-34.386566 0l0 7.0942383l4.350647 0l-7.130615 8.120117l-7.130615 -8.120117l4.350647 0l0 -7.0942383l-34.386536 0l0 -35.139557l-6.7921143 0l0 4.3506775z" fill-rule="evenodd"/><path stroke="#000000" stroke-width="1.0" stroke-linejoin="round" stroke-linecap="butt" d="m452.5013 466.75067l8.120117 -7.1306458l0 4.3506775l6.7921143 0l0 -35.139557l34.386536 0l0 -7.0942383l-4.350647 0l7.130615 -8.120117l7.130615 8.120117l-4.350647 0l0 7.0942383l34.386566 0l0 35.139557l6.7921143 0l0 -4.3506775l8.120117 7.1306458l-8.120117 7.130615l0 -4.3506775l-6.7921143 0l0 35.139557l-34.386566 0l0 7.0942383l4.350647 0l-7.130615 8.120117l-7.130615 -8.120117l4.350647 0l0 -7.0942383l-34.386536 0l0 -35.139557l-6.7921143 0l0 4.3506775z" fill-rule="evenodd"/><path fill="#000000" d="m478.3534 468.45566l1.3125 -0.109375q0.09375 0.78125 0.421875 1.296875q0.34375 0.5 1.0625 0.8125q0.71875 0.3125 1.609375 0.3125q0.796875 0 1.40625 -0.234375q0.609375 -0.234375 0.90625 -0.640625q0.296875 -0.421875 0.296875 -0.90625q0 -0.5 -0.296875 -0.859375q-0.28125 -0.375 -0.9375 -0.625q-0.421875 -0.171875 -1.875 -0.515625q-1.4375 -0.34375 -2.015625 -0.65625q-0.75 -0.390625 -1.125 -0.96875q-0.359375 -0.59375 -0.359375 -1.3125q0 -0.796875 0.4375 -1.484375q0.453125 -0.6875 1.3125 -1.046875q0.875 -0.359375 1.9375 -0.359375q1.171875 0 2.0625 0.375q0.890625 0.375 1.359375 1.109375q0.484375 0.734375 0.515625 1.65625l-1.328125 0.09375q-0.109375 -1.0 -0.734375 -1.5q-0.609375 -0.515625 -1.8125 -0.515625q-1.265625 0 -1.84375 0.46875q-0.578125 0.46875 -0.578125 1.109375q0 0.5625 0.421875 0.9375q0.390625 0.359375 2.078125 0.75q1.703125 0.375 2.328125 0.65625q0.921875 0.421875 1.359375 1.078125q0.4375 0.640625 0.4375 1.484375q0 0.84375 -0.484375 1.59375q-0.484375 0.734375 -1.390625 1.140625q-0.890625 0.40625 -2.015625 0.40625q-1.421875 0 -2.390625 -0.40625q-0.953125 -0.421875 -1.5 -1.25q-0.546875 -0.828125 -0.578125 -1.890625zm15.291229 0.921875l1.328125 0.171875q-0.3125 1.171875 -1.171875 1.8125q-0.84375 0.640625 -2.171875 0.640625q-1.671875 0 -2.65625 -1.015625q-0.96875 -1.03125 -0.96875 -2.890625q0 -1.921875 0.984375 -2.96875q1.0 -1.0625 2.578125 -1.0625q1.515625 0 2.484375 1.03125q0.96875 1.03125 0.96875 2.921875q0 0.109375 -0.015625 0.34375l-5.65625 0q0.0625 1.25 0.703125 1.921875q0.640625 0.65625 1.59375 0.65625q0.703125 0 1.203125 -0.359375q0.5 -0.375 0.796875 -1.203125zm-4.234375 -2.078125l4.25 0q-0.09375 -0.953125 -0.484375 -1.4375q-0.625 -0.75 -1.609375 -0.75q-0.875 0 -1.484375 0.59375q-0.609375 0.59375 -0.671875 1.59375zm7.1823425 4.53125l0 -7.59375l1.15625 0l0 1.078125q0.84375 -1.25 2.421875 -1.25q0.6875 0 1.265625 0.25q0.578125 0.234375 0.859375 0.640625q0.28125 0.40625 0.40625 0.953125q0.0625 0.359375 0.0625 1.25l0 4.671875l-1.28125 0l0 -4.625q0 -0.78125 -0.15625 -1.171875q-0.15625 -0.390625 -0.546875 -0.625q-0.375 -0.234375 -0.890625 -0.234375q-0.8125 0 -1.421875 0.53125q-0.59375 0.515625 -0.59375 1.96875l0 4.15625l-1.28125 0zm7.635498 -2.265625l1.265625 -0.203125q0.109375 0.765625 0.59375 1.171875q0.5 0.40625 1.375 0.40625q0.890625 0 1.3125 -0.359375q0.4375 -0.359375 0.4375 -0.84375q0 -0.4375 -0.375 -0.6875q-0.265625 -0.171875 -1.3125 -0.4375q-1.421875 -0.359375 -1.96875 -0.609375q-0.546875 -0.265625 -0.828125 -0.734375q-0.28125 -0.46875 -0.28125 -1.015625q0 -0.515625 0.21875 -0.9375q0.234375 -0.4375 0.640625 -0.734375q0.296875 -0.21875 0.8125 -0.359375q0.53125 -0.15625 1.125 -0.15625q0.890625 0 1.5625 0.265625q0.671875 0.25 1.0 0.6875q0.328125 0.4375 0.4375 1.171875l-1.25 0.171875q-0.09375 -0.578125 -0.5 -0.90625q-0.40625 -0.34375 -1.15625 -0.34375q-0.890625 0 -1.28125 0.296875q-0.375 0.296875 -0.375 0.6875q0 0.25 0.15625 0.453125q0.15625 0.203125 0.5 0.34375q0.1875 0.078125 1.140625 0.328125q1.359375 0.359375 1.890625 0.59375q0.546875 0.234375 0.859375 0.6875q0.3125 0.4375 0.3125 1.09375q0 0.640625 -0.375 1.21875q-0.375 0.5625 -1.09375 0.875q-0.703125 0.3125 -1.59375 0.3125q-1.484375 0 -2.265625 -0.609375q-0.765625 -0.625 -0.984375 -1.828125zm7.359375 -1.53125q0 -2.109375 1.171875 -3.125q0.984375 -0.84375 2.390625 -0.84375q1.578125 0 2.5625 1.03125q1.0 1.015625 1.0 2.828125q0 1.46875 -0.4375 2.3125q-0.4375 0.828125 -1.28125 1.296875q-0.84375 0.46875 -1.84375 0.46875q-1.59375 0 -2.578125 -1.015625q-0.984375 -1.03125 -0.984375 -2.953125zm1.328125 0q0 1.453125 0.625 2.1875q0.640625 0.71875 1.609375 0.71875q0.96875 0 1.59375 -0.71875q0.640625 -0.734375 0.640625 -2.234375q0 -1.40625 -0.640625 -2.125q-0.640625 -0.734375 -1.59375 -0.734375q-0.96875 0 -1.609375 0.71875q-0.625 0.71875 -0.625 2.1875zm7.291748 3.796875l0 -7.59375l1.15625 0l0 1.140625q0.453125 -0.796875 0.828125 -1.046875q0.375 -0.265625 0.8125 -0.265625q0.65625 0 1.328125 0.40625l-0.4375 1.203125q-0.46875 -0.28125 -0.953125 -0.28125q-0.421875 0 -0.765625 0.25q-0.328125 0.25 -0.46875 0.703125q-0.21875 0.6875 -0.21875 1.5l0 3.984375l-1.28125 0zm4.380615 -2.265625l1.265625 -0.203125q0.109375 0.765625 0.59375 1.171875q0.5 0.40625 1.375 0.40625q0.890625 0 1.3125 -0.359375q0.4375 -0.359375 0.4375 -0.84375q0 -0.4375 -0.375 -0.6875q-0.265625 -0.171875 -1.3125 -0.4375q-1.421875 -0.359375 -1.96875 -0.609375q-0.546875 -0.265625 -0.828125 -0.734375q-0.28125 -0.46875 -0.28125 -1.015625q0 -0.515625 0.21875 -0.9375q0.234375 -0.4375 0.640625 -0.734375q0.296875 -0.21875 0.8125 -0.359375q0.53125 -0.15625 1.125 -0.15625q0.890625 0 1.5625 0.265625q0.671875 0.25 1.0 0.6875q0.328125 0.4375 0.4375 1.171875l-1.25 0.171875q-0.09375 -0.578125 -0.5 -0.90625q-0.40625 -0.34375 -1.15625 -0.34375q-0.890625 0 -1.28125 0.296875q-0.375 0.296875 -0.375 0.6875q0 0.25 0.15625 0.453125q0.15625 0.203125 0.5 0.34375q0.1875 0.078125 1.140625 0.328125q1.359375 0.359375 1.890625 0.59375q0.546875 0.234375 0.859375 0.6875q0.3125 0.4375 0.3125 1.09375q0 0.640625 -0.375 1.21875q-0.375 0.5625 -1.09375 0.875q-0.703125 0.3125 -1.59375 0.3125q-1.484375 0 -2.265625 -0.609375q-0.765625 -0.625 -0.984375 -1.828125z" fill-rule="nonzero"/><path fill="#f3f3f3" d="m195.3727 469.3701l0 0c0 -43.774017 35.485855 -79.25986 79.25984 -79.25986l0 0c21.021027 0 41.18109 8.350586 56.045166 23.214691c14.864105 14.864075 23.214691 35.02414 23.214691 56.045166l0 0c0 43.774017 -35.48584 79.25986 -79.25986 79.25986l0 0c-43.773987 0 -79.25984 -35.48584 -79.25984 -79.25986z" fill-rule="evenodd"/><path stroke="#000000" stroke-width="1.0" stroke-linejoin="round" stroke-linecap="butt" d="m195.3727 469.3701l0 0c0 -43.774017 35.485855 -79.25986 79.25984 -79.25986l0 0c21.021027 0 41.18109 8.350586 56.045166 23.214691c14.864105 14.864075 23.214691 35.02414 23.214691 56.045166l0 0c0 43.774017 -35.48584 79.25986 -79.25986 79.25986l0 0c-43.773987 0 -79.25984 -35.48584 -79.25984 -79.25986z" fill-rule="evenodd"/><path fill="#f4cccc" d="m250.93176 386.53018l0 0c0 -12.706909 10.300964 -23.007874 23.007874 -23.007874l0 0c6.102051 0 11.954193 2.4240417 16.269012 6.738861c4.3148193 4.314789 6.738861 10.166962 6.738861 16.269012l0 0c0 12.706909 -10.300964 23.007874 -23.007874 23.007874l0 0c-12.706909 0 -23.007874 -10.300964 -23.007874 -23.007874z" fill-rule="evenodd"/><path stroke="#000000" stroke-width="1.0" stroke-linejoin="round" stroke-linecap="butt" d="m250.93176 386.53018l0 0c0 -12.706909 10.300964 -23.007874 23.007874 -23.007874l0 0c6.102051 0 11.954193 2.4240417 16.269012 6.738861c4.3148193 4.314789 6.738861 10.166962 6.738861 16.269012l0 0c0 12.706909 -10.300964 23.007874 -23.007874 23.007874l0 0c-12.706909 0 -23.007874 -10.300964 -23.007874 -23.007874z" fill-rule="evenodd"/><path fill="#000000" fill-opacity="0.0" d="m242.93176 365.6509l63.40158 0l0 42.015747l-63.40158 0z" fill-rule="evenodd"/><path fill="#000000" d="m268.1664 392.57092l0 -5.65625l-5.15625 -7.703125l2.15625 0l2.640625 4.03125q0.71875 1.125 1.34375 2.265625q0.609375 -1.046875 1.46875 -2.359375l2.578125 -3.9375l2.0625 0l-5.328125 7.703125l0 5.65625l-1.765625 0zm11.912323 -2.15625l0 -3.671875l-3.640625 0l0 -1.515625l3.640625 0l0 -3.640625l1.546875 0l0 3.640625l3.640625 0l0 1.515625l-3.640625 0l0 3.671875l-1.546875 0z" fill-rule="nonzero"/><path fill="#cfe2f3" d="m252.31758 551.1102l0 0c0 -12.706909 10.30098 -23.007874 23.007889 -23.007874l0 0c6.102051 0 11.954193 2.4240723 16.269012 6.7388306c4.3148193 4.3148193 6.738861 10.166992 6.738861 16.269043l0 0c0 12.706909 -10.300995 23.007874 -23.007874 23.007874l0 0c-12.706909 0 -23.007889 -10.300964 -23.007889 -23.007874z" fill-rule="evenodd"/><path stroke="#000000" stroke-width="1.0" stroke-linejoin="round" stroke-linecap="butt" d="m252.31758 551.1102l0 0c0 -12.706909 10.30098 -23.007874 23.007889 -23.007874l0 0c6.102051 0 11.954193 2.4240723 16.269012 6.7388306c4.3148193 4.3148193 6.738861 10.166992 6.738861 16.269043l0 0c0 12.706909 -10.300995 23.007874 -23.007874 23.007874l0 0c-12.706909 0 -23.007889 -10.300964 -23.007889 -23.007874z" fill-rule="evenodd"/><path fill="#000000" fill-opacity="0.0" d="m243.62466 530.10236l63.40158 0l0 42.015747l-63.40158 0z" fill-rule="evenodd"/><path fill="#000000" d="m272.05722 557.02234l0 -5.65625l-5.15625 -7.703125l2.15625 0l2.640625 4.03125q0.71875 1.125 1.34375 2.265625q0.609375 -1.046875 1.46875 -2.359375l2.578125 -3.9375l2.0625 0l-5.328125 7.703125l0 5.65625l-1.765625 0zm6.1206665 -4.015625l0 -1.640625l5.03125 0l0 1.640625l-5.03125 0z" fill-rule="nonzero"/><path fill="#f4cccc" d="m334.0971 469.3701l0 0c0 -12.706909 10.300995 -23.007874 23.007874 -23.007874l0 0c6.1020813 0 11.954224 2.4240417 16.269043 6.7388306c4.314789 4.3148193 6.7388306 10.166962 6.7388306 16.269043l0 0c0 12.706879 -10.300964 23.007874 -23.007874 23.007874l0 0c-12.706879 0 -23.007874 -10.300995 -23.007874 -23.007874z" fill-rule="evenodd"/><path stroke="#000000" stroke-width="1.0" stroke-linejoin="round" stroke-linecap="butt" d="m334.0971 469.3701l0 0c0 -12.706909 10.300995 -23.007874 23.007874 -23.007874l0 0c6.1020813 0 11.954224 2.4240417 16.269043 6.7388306c4.314789 4.3148193 6.7388306 10.166962 6.7388306 16.269043l0 0c0 12.706879 -10.300964 23.007874 -23.007874 23.007874l0 0c-12.706879 0 -23.007874 -10.300995 -23.007874 -23.007874z" fill-rule="evenodd"/><path fill="#000000" fill-opacity="0.0" d="m326.0971 448.4908l63.40158 0l0 42.015747l-63.40158 0z" fill-rule="evenodd"/><path fill="#000000" d="m346.20676 475.4108l5.171875 -6.953125l-4.5625 -6.40625l2.109375 0l2.421875 3.4375q0.75 1.0625 1.078125 1.625q0.4375 -0.71875 1.046875 -1.515625l2.6875 -3.546875l1.921875 0l-4.6875 6.296875l5.0625 7.0625l-2.1875 0l-3.359375 -4.765625q-0.28125 -0.40625 -0.59375 -0.890625q-0.4375 0.734375 -0.625 1.0l-3.359375 4.65625l-2.125 0zm17.037323 -2.15625l0 -3.671875l-3.640625 0l0 -1.515625l3.640625 0l0 -3.640625l1.546875 0l0 3.640625l3.640625 0l0 1.515625l-3.640625 0l0 3.671875l-1.546875 0z" fill-rule="nonzero"/><path fill="#cfe2f3" d="m173.1811 469.4987l0 0c0 -12.706909 10.300964 -23.007874 23.007874 -23.007874l0 0c6.102066 0 11.954208 2.4240417 16.269012 6.738861c4.3148193 4.314789 6.738861 10.166931 6.738861 16.269012l0 0c0 12.706909 -10.30098 23.007874 -23.007874 23.007874l0 0c-12.706909 0 -23.007874 -10.300964 -23.007874 -23.007874z" fill-rule="evenodd"/><path stroke="#000000" stroke-width="1.0" stroke-linejoin="round" stroke-linecap="butt" d="m173.1811 469.4987l0 0c0 -12.706909 10.300964 -23.007874 23.007874 -23.007874l0 0c6.102066 0 11.954208 2.4240417 16.269012 6.738861c4.3148193 4.314789 6.738861 10.166931 6.738861 16.269012l0 0c0 12.706909 -10.30098 23.007874 -23.007874 23.007874l0 0c-12.706909 0 -23.007874 -10.300964 -23.007874 -23.007874z" fill-rule="evenodd"/><path fill="#000000" fill-opacity="0.0" d="m164.48819 448.4908l63.40158 0l0 42.015747l-63.40158 0z" fill-rule="evenodd"/><path fill="#000000" d="m186.93898 475.4108l5.171875 -6.953125l-4.5625 -6.40625l2.109375 0l2.421875 3.4375q0.75 1.0625 1.078125 1.625q0.4375 -0.71875 1.046875 -1.515625l2.6875 -3.546875l1.921875 0l-4.6875 6.296875l5.0625 7.0625l-2.1875 0l-3.359375 -4.765625q-0.28125 -0.40625 -0.59375 -0.890625q-0.4375 0.734375 -0.625 1.0l-3.359375 4.65625l-2.125 0zm12.959198 -4.015625l0 -1.640625l5.03125 0l0 1.640625l-5.03125 0z" fill-rule="nonzero"/><path fill="#f3f3f3" d="m224.50131 467.42783l8.120117 -7.130615l0 4.350647l6.7921143 0l0 -35.139557l34.386536 0l0 -7.094208l-4.350647 0l7.130615 -8.120117l7.130615 8.120117l-4.350647 0l0 7.094208l34.386536 0l0 35.139557l6.7921143 0l0 -4.350647l8.120117 7.130615l-8.120117 7.130615l0 -4.350647l-6.7921143 0l0 35.139526l-34.386536 0l0 7.094269l4.350647 0l-7.130615 8.120117l-7.130615 -8.120117l4.350647 0l0 -7.094269l-34.386536 0l0 -35.139526l-6.7921143 0l0 4.350647z" fill-rule="evenodd"/><path stroke="#000000" stroke-width="1.0" stroke-linejoin="round" stroke-linecap="butt" d="m224.50131 467.42783l8.120117 -7.130615l0 4.350647l6.7921143 0l0 -35.139557l34.386536 0l0 -7.094208l-4.350647 0l7.130615 -8.120117l7.130615 8.120117l-4.350647 0l0 7.094208l34.386536 0l0 35.139557l6.7921143 0l0 -4.350647l8.120117 7.130615l-8.120117 7.130615l0 -4.350647l-6.7921143 0l0 35.139526l-34.386536 0l0 7.094269l4.350647 0l-7.130615 8.120117l-7.130615 -8.120117l4.350647 0l0 -7.094269l-34.386536 0l0 -35.139526l-6.7921143 0l0 4.350647z" fill-rule="evenodd"/><path fill="#000000" d="m250.3534 469.1328l1.3125 -0.109375q0.09375 0.78125 0.421875 1.296875q0.34375 0.5 1.0625 0.8125q0.71875 0.3125 1.609375 0.3125q0.796875 0 1.40625 -0.234375q0.609375 -0.234375 0.90625 -0.640625q0.296875 -0.421875 0.296875 -0.90625q0 -0.5 -0.296875 -0.859375q-0.28125 -0.375 -0.9375 -0.625q-0.421875 -0.171875 -1.875 -0.515625q-1.4375 -0.34375 -2.015625 -0.65625q-0.75 -0.390625 -1.125 -0.96875q-0.359375 -0.59375 -0.359375 -1.3125q0 -0.796875 0.4375 -1.484375q0.453125 -0.6875 1.3125 -1.046875q0.875 -0.359375 1.9375 -0.359375q1.171875 0 2.0625 0.375q0.890625 0.375 1.359375 1.109375q0.484375 0.734375 0.515625 1.65625l-1.328125 0.09375q-0.109375 -1.0 -0.734375 -1.5q-0.609375 -0.515625 -1.8125 -0.515625q-1.265625 0 -1.84375 0.46875q-0.578125 0.46875 -0.578125 1.109375q0 0.5625 0.421875 0.9375q0.390625 0.359375 2.078125 0.75q1.703125 0.375 2.328125 0.65625q0.921875 0.421875 1.359375 1.078125q0.4375 0.640625 0.4375 1.484375q0 0.84375 -0.484375 1.59375q-0.484375 0.734375 -1.390625 1.140625q-0.890625 0.40625 -2.015625 0.40625q-1.421875 0 -2.390625 -0.40625q-0.953125 -0.421875 -1.5 -1.25q-0.546875 -0.828125 -0.578125 -1.890625zm15.291229 0.921875l1.328125 0.171875q-0.3125 1.171875 -1.171875 1.8125q-0.84375 0.640625 -2.171875 0.640625q-1.671875 0 -2.65625 -1.015625q-0.96875 -1.03125 -0.96875 -2.890625q0 -1.921875 0.984375 -2.96875q1.0 -1.0625 2.578125 -1.0625q1.515625 0 2.484375 1.03125q0.96875 1.03125 0.96875 2.921875q0 0.109375 -0.015625 0.34375l-5.65625 0q0.0625 1.25 0.703125 1.921875q0.640625 0.65625 1.59375 0.65625q0.703125 0 1.203125 -0.359375q0.5 -0.375 0.796875 -1.203125zm-4.234375 -2.078125l4.25 0q-0.09375 -0.953125 -0.484375 -1.4375q-0.625 -0.75 -1.609375 -0.75q-0.875 0 -1.484375 0.59375q-0.609375 0.59375 -0.671875 1.59375zm7.1823425 4.53125l0 -7.59375l1.15625 0l0 1.078125q0.84375 -1.25 2.421875 -1.25q0.6875 0 1.265625 0.25q0.578125 0.234375 0.859375 0.640625q0.28125 0.40625 0.40625 0.953125q0.0625 0.359375 0.0625 1.25l0 4.671875l-1.28125 0l0 -4.625q0 -0.78125 -0.15625 -1.171875q-0.15625 -0.390625 -0.546875 -0.625q-0.375 -0.234375 -0.890625 -0.234375q-0.8125 0 -1.421875 0.53125q-0.59375 0.515625 -0.59375 1.96875l0 4.15625l-1.28125 0zm7.635498 -2.265625l1.265625 -0.203125q0.109375 0.765625 0.59375 1.171875q0.5 0.40625 1.375 0.40625q0.890625 0 1.3125 -0.359375q0.4375 -0.359375 0.4375 -0.84375q0 -0.4375 -0.375 -0.6875q-0.265625 -0.171875 -1.3125 -0.4375q-1.421875 -0.359375 -1.96875 -0.609375q-0.546875 -0.265625 -0.828125 -0.734375q-0.28125 -0.46875 -0.28125 -1.015625q0 -0.515625 0.21875 -0.9375q0.234375 -0.4375 0.640625 -0.734375q0.296875 -0.21875 0.8125 -0.359375q0.53125 -0.15625 1.125 -0.15625q0.890625 0 1.5625 0.265625q0.671875 0.25 1.0 0.6875q0.328125 0.4375 0.4375 1.171875l-1.25 0.171875q-0.09375 -0.578125 -0.5 -0.90625q-0.40625 -0.34375 -1.15625 -0.34375q-0.890625 0 -1.28125 0.296875q-0.375 0.296875 -0.375 0.6875q0 0.25 0.15625 0.453125q0.15625 0.203125 0.5 0.34375q0.1875 0.078125 1.140625 0.328125q1.359375 0.359375 1.890625 0.59375q0.546875 0.234375 0.859375 0.6875q0.3125 0.4375 0.3125 1.09375q0 0.640625 -0.375 1.21875q-0.375 0.5625 -1.09375 0.875q-0.703125 0.3125 -1.59375 0.3125q-1.484375 0 -2.265625 -0.609375q-0.765625 -0.625 -0.984375 -1.828125zm7.359375 -1.53125q0 -2.109375 1.171875 -3.125q0.984375 -0.84375 2.390625 -0.84375q1.578125 0 2.5625 1.03125q1.0 1.015625 1.0 2.828125q0 1.46875 -0.4375 2.3125q-0.4375 0.828125 -1.28125 1.296875q-0.84375 0.46875 -1.84375 0.46875q-1.59375 0 -2.578125 -1.015625q-0.984375 -1.03125 -0.984375 -2.953125zm1.328125 0q0 1.453125 0.625 2.1875q0.640625 0.71875 1.609375 0.71875q0.96875 0 1.59375 -0.71875q0.640625 -0.734375 0.640625 -2.234375q0 -1.40625 -0.640625 -2.125q-0.640625 -0.734375 -1.59375 -0.734375q-0.96875 0 -1.609375 0.71875q-0.625 0.71875 -0.625 2.1875zm7.2917175 3.796875l0 -7.59375l1.15625 0l0 1.140625q0.453125 -0.796875 0.828125 -1.046875q0.375 -0.265625 0.8125 -0.265625q0.65625 0 1.328125 0.40625l-0.4375 1.203125q-0.46875 -0.28125 -0.953125 -0.28125q-0.421875 0 -0.765625 0.25q-0.328125 0.25 -0.46875 0.703125q-0.21875 0.6875 -0.21875 1.5l0 3.984375l-1.28125 0zm4.3806458 -2.265625l1.265625 -0.203125q0.109375 0.765625 0.59375 1.171875q0.5 0.40625 1.375 0.40625q0.890625 0 1.3125 -0.359375q0.4375 -0.359375 0.4375 -0.84375q0 -0.4375 -0.375 -0.6875q-0.265625 -0.171875 -1.3125 -0.4375q-1.421875 -0.359375 -1.96875 -0.609375q-0.546875 -0.265625 -0.828125 -0.734375q-0.28125 -0.46875 -0.28125 -1.015625q0 -0.515625 0.21875 -0.9375q0.234375 -0.4375 0.640625 -0.734375q0.296875 -0.21875 0.8125 -0.359375q0.53125 -0.15625 1.125 -0.15625q0.890625 0 1.5625 0.265625q0.671875 0.25 1.0 0.6875q0.328125 0.4375 0.4375 1.171875l-1.25 0.171875q-0.09375 -0.578125 -0.5 -0.90625q-0.40625 -0.34375 -1.15625 -0.34375q-0.890625 0 -1.28125 0.296875q-0.375 0.296875 -0.375 0.6875q0 0.25 0.15625 0.453125q0.15625 0.203125 0.5 0.34375q0.1875 0.078125 1.140625 0.328125q1.359375 0.359375 1.890625 0.59375q0.546875 0.234375 0.859375 0.6875q0.3125 0.4375 0.3125 1.09375q0 0.640625 -0.375 1.21875q-0.375 0.5625 -1.09375 0.875q-0.703125 0.3125 -1.59375 0.3125q-1.484375 0 -2.265625 -0.609375q-0.765625 -0.625 -0.984375 -1.828125z" fill-rule="nonzero"/><path fill="#f3f3f3" d="m656.03674 470.04855l0 0c0 -43.773987 35.48584 -79.25983 79.25983 -79.25983l0 0c21.021057 0 41.18109 8.350555 56.045166 23.21466c14.864136 14.864105 23.214722 35.02414 23.214722 56.045166l0 0c0 43.774017 -35.48584 79.25986 -79.25989 79.25986l0 0c-43.773987 0 -79.25983 -35.48584 -79.25983 -79.25986z" fill-rule="evenodd"/><path stroke="#000000" stroke-width="1.0" stroke-linejoin="round" stroke-linecap="butt" d="m656.03674 470.04855l0 0c0 -43.773987 35.48584 -79.25983 79.25983 -79.25983l0 0c21.021057 0 41.18109 8.350555 56.045166 23.21466c14.864136 14.864105 23.214722 35.02414 23.214722 56.045166l0 0c0 43.774017 -35.48584 79.25986 -79.25989 79.25986l0 0c-43.773987 0 -79.25983 -35.48584 -79.25983 -79.25986z" fill-rule="evenodd"/><path fill="#f4cccc" d="m711.5958 387.20865l0 0c0 -12.706879 10.300964 -23.007874 23.007874 -23.007874l0 0c6.102051 0 11.954163 2.4240417 16.268982 6.738861c4.3148193 4.3148193 6.7388916 10.166962 6.7388916 16.269012l0 0c0 12.706909 -10.301025 23.007874 -23.007874 23.007874l0 0c-12.706909 0 -23.007874 -10.300964 -23.007874 -23.007874z" fill-rule="evenodd"/><path stroke="#000000" stroke-width="1.0" stroke-linejoin="round" stroke-linecap="butt" d="m711.5958 387.20865l0 0c0 -12.706879 10.300964 -23.007874 23.007874 -23.007874l0 0c6.102051 0 11.954163 2.4240417 16.268982 6.738861c4.3148193 4.3148193 6.7388916 10.166962 6.7388916 16.269012l0 0c0 12.706909 -10.301025 23.007874 -23.007874 23.007874l0 0c-12.706909 0 -23.007874 -10.300964 -23.007874 -23.007874z" fill-rule="evenodd"/><path fill="#000000" fill-opacity="0.0" d="m703.5958 366.3294l63.40155 0l0 42.015747l-63.40155 0z" fill-rule="evenodd"/><path fill="#000000" d="m728.83044 393.2494l0 -5.65625l-5.15625 -7.703125l2.15625 0l2.640625 4.03125q0.71875 1.125 1.34375 2.265625q0.609375 -1.046875 1.46875 -2.359375l2.578125 -3.9375l2.0625 0l-5.328125 7.703125l0 5.65625l-1.765625 0zm11.9123535 -2.15625l0 -3.671875l-3.640625 0l0 -1.515625l3.640625 0l0 -3.640625l1.546875 0l0 3.640625l3.640625 0l0 1.515625l-3.640625 0l0 3.671875l-1.546875 0z" fill-rule="nonzero"/><path fill="#cfe2f3" d="m712.9816 551.7887l0 0c0 -12.706909 10.300964 -23.007874 23.007874 -23.007874l0 0c6.102051 0 11.954224 2.4240723 16.269043 6.7388916c4.3148193 4.3148193 6.7388306 10.166931 6.7388306 16.268982l0 0c0 12.706909 -10.300964 23.007874 -23.007874 23.007874l0 0c-12.706909 0 -23.007874 -10.300964 -23.007874 -23.007874z" fill-rule="evenodd"/><path stroke="#000000" stroke-width="1.0" stroke-linejoin="round" stroke-linecap="butt" d="m712.9816 551.7887l0 0c0 -12.706909 10.300964 -23.007874 23.007874 -23.007874l0 0c6.102051 0 11.954224 2.4240723 16.269043 6.7388916c4.3148193 4.3148193 6.7388306 10.166931 6.7388306 16.268982l0 0c0 12.706909 -10.300964 23.007874 -23.007874 23.007874l0 0c-12.706909 0 -23.007874 -10.300964 -23.007874 -23.007874z" fill-rule="evenodd"/><path fill="#000000" fill-opacity="0.0" d="m704.2887 530.7808l63.40161 0l0 42.015747l-63.40161 0z" fill-rule="evenodd"/><path fill="#000000" d="m732.72125 557.70087l0 -5.65625l-5.15625 -7.703125l2.15625 0l2.640625 4.03125q0.71875 1.125 1.34375 2.265625q0.609375 -1.046875 1.46875 -2.359375l2.578125 -3.9375l2.0625 0l-5.328125 7.703125l0 5.65625l-1.765625 0zm6.1206665 -4.015625l0 -1.640625l5.03125 0l0 1.640625l-5.03125 0z" fill-rule="nonzero"/><path fill="#f4cccc" d="m794.76117 470.04855l0 0c0 -12.706909 10.300964 -23.007874 23.007874 -23.007874l0 0c6.102051 0 11.954224 2.4240417 16.268982 6.738861c4.3148193 4.3148193 6.7388916 10.166962 6.7388916 16.269012l0 0c0 12.706909 -10.300964 23.007874 -23.007874 23.007874l0 0c-12.706909 0 -23.007874 -10.300964 -23.007874 -23.007874z" fill-rule="evenodd"/><path stroke="#000000" stroke-width="1.0" stroke-linejoin="round" stroke-linecap="butt" d="m794.76117 470.04855l0 0c0 -12.706909 10.300964 -23.007874 23.007874 -23.007874l0 0c6.102051 0 11.954224 2.4240417 16.268982 6.738861c4.3148193 4.3148193 6.7388916 10.166962 6.7388916 16.269012l0 0c0 12.706909 -10.300964 23.007874 -23.007874 23.007874l0 0c-12.706909 0 -23.007874 -10.300964 -23.007874 -23.007874z" fill-rule="evenodd"/><path fill="#000000" fill-opacity="0.0" d="m786.76117 449.16928l63.40155 0l0 42.015747l-63.40155 0z" fill-rule="evenodd"/><path fill="#000000" d="m806.8708 476.0893l5.171875 -6.953125l-4.5625 -6.40625l2.109375 0l2.421875 3.4375q0.75 1.0625 1.078125 1.625q0.4375 -0.71875 1.046875 -1.515625l2.6875 -3.546875l1.921875 0l-4.6875 6.296875l5.0625 7.0625l-2.1875 0l-3.359375 -4.765625q-0.28125 -0.40625 -0.59375 -0.890625q-0.4375 0.734375 -0.625 1.0l-3.359375 4.65625l-2.125 0zm17.037354 -2.15625l0 -3.671875l-3.640625 0l0 -1.515625l3.640625 0l0 -3.640625l1.546875 0l0 3.640625l3.640625 0l0 1.515625l-3.640625 0l0 3.671875l-1.546875 0z" fill-rule="nonzero"/><path fill="#cfe2f3" d="m633.84515 470.17715l0 0c0 -12.706879 10.300964 -23.007874 23.007874 -23.007874l0 0c6.102051 0 11.954224 2.4240417 16.269043 6.738861c4.3147583 4.3148193 6.7388306 10.166962 6.7388306 16.269012l0 0c0 12.706909 -10.300964 23.007874 -23.007874 23.007874l0 0c-12.706909 0 -23.007874 -10.300964 -23.007874 -23.007874z" fill-rule="evenodd"/><path stroke="#000000" stroke-width="1.0" stroke-linejoin="round" stroke-linecap="butt" d="m633.84515 470.17715l0 0c0 -12.706879 10.300964 -23.007874 23.007874 -23.007874l0 0c6.102051 0 11.954224 2.4240417 16.269043 6.738861c4.3147583 4.3148193 6.7388306 10.166962 6.7388306 16.269012l0 0c0 12.706909 -10.300964 23.007874 -23.007874 23.007874l0 0c-12.706909 0 -23.007874 -10.300964 -23.007874 -23.007874z" fill-rule="evenodd"/><path fill="#000000" fill-opacity="0.0" d="m625.1522 449.16928l63.40161 0l0 42.015747l-63.40161 0z" fill-rule="evenodd"/><path fill="#000000" d="m647.603 476.0893l5.171875 -6.953125l-4.5625 -6.40625l2.109375 0l2.421875 3.4375q0.75 1.0625 1.078125 1.625q0.4375 -0.71875 1.046875 -1.515625l2.6875 -3.546875l1.921875 0l-4.6875 6.296875l5.0625 7.0625l-2.1875 0l-3.359375 -4.765625q-0.28125 -0.40625 -0.59375 -0.890625q-0.4375 0.734375 -0.625 1.0l-3.359375 4.65625l-2.125 0zm12.9591675 -4.015625l0 -1.640625l5.03125 0l0 1.640625l-5.03125 0z" fill-rule="nonzero"/><path fill="#f3f3f3" d="m685.16534 468.1063l8.120117 -7.130615l0 4.350647l6.7921143 0l0 -35.139526l34.386536 0l0 -7.0942383l-4.350647 0l7.130615 -8.120117l7.130615 8.120117l-4.350647 0l0 7.0942383l34.386536 0l0 35.139526l6.7921143 0l0 -4.350647l8.120117 7.130615l-8.120117 7.130615l0 -4.350647l-6.7921143 0l0 35.139557l-34.386536 0l0 7.0942383l4.350647 0l-7.130615 8.120117l-7.130615 -8.120117l4.350647 0l0 -7.0942383l-34.386536 0l0 -35.139557l-6.7921143 0l0 4.350647z" fill-rule="evenodd"/><path stroke="#000000" stroke-width="1.0" stroke-linejoin="round" stroke-linecap="butt" d="m685.16534 468.1063l8.120117 -7.130615l0 4.350647l6.7921143 0l0 -35.139526l34.386536 0l0 -7.0942383l-4.350647 0l7.130615 -8.120117l7.130615 8.120117l-4.350647 0l0 7.0942383l34.386536 0l0 35.139526l6.7921143 0l0 -4.350647l8.120117 7.130615l-8.120117 7.130615l0 -4.350647l-6.7921143 0l0 35.139557l-34.386536 0l0 7.0942383l4.350647 0l-7.130615 8.120117l-7.130615 -8.120117l4.350647 0l0 -7.0942383l-34.386536 0l0 -35.139557l-6.7921143 0l0 4.350647z" fill-rule="evenodd"/><path fill="#000000" d="m711.01746 469.8113l1.3125 -0.109375q0.09375 0.78125 0.421875 1.296875q0.34375 0.5 1.0625 0.8125q0.71875 0.3125 1.609375 0.3125q0.796875 0 1.40625 -0.234375q0.609375 -0.234375 0.90625 -0.640625q0.296875 -0.421875 0.296875 -0.90625q0 -0.5 -0.296875 -0.859375q-0.28125 -0.375 -0.9375 -0.625q-0.421875 -0.171875 -1.875 -0.515625q-1.4375 -0.34375 -2.015625 -0.65625q-0.75 -0.390625 -1.125 -0.96875q-0.359375 -0.59375 -0.359375 -1.3125q0 -0.796875 0.4375 -1.484375q0.453125 -0.6875 1.3125 -1.046875q0.875 -0.359375 1.9375 -0.359375q1.171875 0 2.0625 0.375q0.890625 0.375 1.359375 1.109375q0.484375 0.734375 0.515625 1.65625l-1.328125 0.09375q-0.109375 -1.0 -0.734375 -1.5q-0.609375 -0.515625 -1.8125 -0.515625q-1.265625 0 -1.84375 0.46875q-0.578125 0.46875 -0.578125 1.109375q0 0.5625 0.421875 0.9375q0.390625 0.359375 2.078125 0.75q1.703125 0.375 2.328125 0.65625q0.921875 0.421875 1.359375 1.078125q0.4375 0.640625 0.4375 1.484375q0 0.84375 -0.484375 1.59375q-0.484375 0.734375 -1.390625 1.140625q-0.890625 0.40625 -2.015625 0.40625q-1.421875 0 -2.390625 -0.40625q-0.953125 -0.421875 -1.5 -1.25q-0.546875 -0.828125 -0.578125 -1.890625zm15.291199 0.921875l1.328125 0.171875q-0.3125 1.171875 -1.171875 1.8125q-0.84375 0.640625 -2.171875 0.640625q-1.671875 0 -2.65625 -1.015625q-0.96875 -1.03125 -0.96875 -2.890625q0 -1.921875 0.984375 -2.96875q1.0 -1.0625 2.578125 -1.0625q1.515625 0 2.484375 1.03125q0.96875 1.03125 0.96875 2.921875q0 0.109375 -0.015625 0.34375l-5.65625 0q0.0625 1.25 0.703125 1.921875q0.640625 0.65625 1.59375 0.65625q0.703125 0 1.203125 -0.359375q0.5 -0.375 0.796875 -1.203125zm-4.234375 -2.078125l4.25 0q-0.09375 -0.953125 -0.484375 -1.4375q-0.625 -0.75 -1.609375 -0.75q-0.875 0 -1.484375 0.59375q-0.609375 0.59375 -0.671875 1.59375zm7.182373 4.53125l0 -7.59375l1.15625 0l0 1.078125q0.84375 -1.25 2.421875 -1.25q0.6875 0 1.265625 0.25q0.578125 0.234375 0.859375 0.640625q0.28125 0.40625 0.40625 0.953125q0.0625 0.359375 0.0625 1.25l0 4.671875l-1.28125 0l0 -4.625q0 -0.78125 -0.15625 -1.171875q-0.15625 -0.390625 -0.546875 -0.625q-0.375 -0.234375 -0.890625 -0.234375q-0.8125 0 -1.421875 0.53125q-0.59375 0.515625 -0.59375 1.96875l0 4.15625l-1.28125 0zm7.635498 -2.265625l1.265625 -0.203125q0.109375 0.765625 0.59375 1.171875q0.5 0.40625 1.375 0.40625q0.890625 0 1.3125 -0.359375q0.4375 -0.359375 0.4375 -0.84375q0 -0.4375 -0.375 -0.6875q-0.265625 -0.171875 -1.3125 -0.4375q-1.421875 -0.359375 -1.96875 -0.609375q-0.546875 -0.265625 -0.828125 -0.734375q-0.28125 -0.46875 -0.28125 -1.015625q0 -0.515625 0.21875 -0.9375q0.234375 -0.4375 0.640625 -0.734375q0.296875 -0.21875 0.8125 -0.359375q0.53125 -0.15625 1.125 -0.15625q0.890625 0 1.5625 0.265625q0.671875 0.25 1.0 0.6875q0.328125 0.4375 0.4375 1.171875l-1.25 0.171875q-0.09375 -0.578125 -0.5 -0.90625q-0.40625 -0.34375 -1.15625 -0.34375q-0.890625 0 -1.28125 0.296875q-0.375 0.296875 -0.375 0.6875q0 0.25 0.15625 0.453125q0.15625 0.203125 0.5 0.34375q0.1875 0.078125 1.140625 0.328125q1.359375 0.359375 1.890625 0.59375q0.546875 0.234375 0.859375 0.6875q0.3125 0.4375 0.3125 1.09375q0 0.640625 -0.375 1.21875q-0.375 0.5625 -1.09375 0.875q-0.703125 0.3125 -1.59375 0.3125q-1.484375 0 -2.265625 -0.609375q-0.765625 -0.625 -0.984375 -1.828125zm7.359375 -1.53125q0 -2.109375 1.171875 -3.125q0.984375 -0.84375 2.390625 -0.84375q1.578125 0 2.5625 1.03125q1.0 1.015625 1.0 2.828125q0 1.46875 -0.4375 2.3125q-0.4375 0.828125 -1.28125 1.296875q-0.84375 0.46875 -1.84375 0.46875q-1.59375 0 -2.578125 -1.015625q-0.984375 -1.03125 -0.984375 -2.953125zm1.328125 0q0 1.453125 0.625 2.1875q0.640625 0.71875 1.609375 0.71875q0.96875 0 1.59375 -0.71875q0.640625 -0.734375 0.640625 -2.234375q0 -1.40625 -0.640625 -2.125q-0.640625 -0.734375 -1.59375 -0.734375q-0.96875 0 -1.609375 0.71875q-0.625 0.71875 -0.625 2.1875zm7.291687 3.796875l0 -7.59375l1.15625 0l0 1.140625q0.453125 -0.796875 0.828125 -1.046875q0.375 -0.265625 0.8125 -0.265625q0.65625 0 1.328125 0.40625l-0.4375 1.203125q-0.46875 -0.28125 -0.953125 -0.28125q-0.421875 0 -0.765625 0.25q-0.328125 0.25 -0.46875 0.703125q-0.21875 0.6875 -0.21875 1.5l0 3.984375l-1.28125 0zm4.3806763 -2.265625l1.265625 -0.203125q0.109375 0.765625 0.59375 1.171875q0.5 0.40625 1.375 0.40625q0.890625 0 1.3125 -0.359375q0.4375 -0.359375 0.4375 -0.84375q0 -0.4375 -0.375 -0.6875q-0.265625 -0.171875 -1.3125 -0.4375q-1.421875 -0.359375 -1.96875 -0.609375q-0.546875 -0.265625 -0.828125 -0.734375q-0.28125 -0.46875 -0.28125 -1.015625q0 -0.515625 0.21875 -0.9375q0.234375 -0.4375 0.640625 -0.734375q0.296875 -0.21875 0.8125 -0.359375q0.53125 -0.15625 1.125 -0.15625q0.890625 0 1.5625 0.265625q0.671875 0.25 1.0 0.6875q0.328125 0.4375 0.4375 1.171875l-1.25 0.171875q-0.09375 -0.578125 -0.5 -0.90625q-0.40625 -0.34375 -1.15625 -0.34375q-0.890625 0 -1.28125 0.296875q-0.375 0.296875 -0.375 0.6875q0 0.25 0.15625 0.453125q0.15625 0.203125 0.5 0.34375q0.1875 0.078125 1.140625 0.328125q1.359375 0.359375 1.890625 0.59375q0.546875 0.234375 0.859375 0.6875q0.3125 0.4375 0.3125 1.09375q0 0.640625 -0.375 1.21875q-0.375 0.5625 -1.09375 0.875q-0.703125 0.3125 -1.59375 0.3125q-1.484375 0 -2.265625 -0.609375q-0.765625 -0.625 -0.984375 -1.828125z" fill-rule="nonzero"/><path fill="#f3f3f3" d="m423.3727 244.69292l0 0c0 -43.774002 35.48584 -79.25984 79.25983 -79.25984l0 0c21.021027 0 41.18106 8.350555 56.045197 23.21466c14.864075 14.864105 23.21466 35.024155 23.21466 56.04518l0 0c0 43.774002 -35.48584 79.25984 -79.25986 79.25984l0 0c-43.773987 0 -79.25983 -35.48584 -79.25983 -79.25984z" fill-rule="evenodd"/><path stroke="#000000" stroke-width="1.0" stroke-linejoin="round" stroke-linecap="butt" d="m423.3727 244.69292l0 0c0 -43.774002 35.48584 -79.25984 79.25983 -79.25984l0 0c21.021027 0 41.18106 8.350555 56.045197 23.21466c14.864075 14.864105 23.21466 35.024155 23.21466 56.04518l0 0c0 43.774002 -35.48584 79.25984 -79.25986 79.25984l0 0c-43.773987 0 -79.25983 -35.48584 -79.25983 -79.25984z" fill-rule="evenodd"/><path fill="#f4cccc" d="m478.93176 161.85301l0 0c0 -12.706894 10.300964 -23.007874 23.007874 -23.007874l0 0c6.102051 0 11.954224 2.4240417 16.269043 6.738861c4.3148193 4.314804 6.7388306 10.166946 6.7388306 16.269012l0 0c0 12.706909 -10.300964 23.007874 -23.007874 23.007874l0 0c-12.706909 0 -23.007874 -10.300964 -23.007874 -23.007874z" fill-rule="evenodd"/><path stroke="#000000" stroke-width="1.0" stroke-linejoin="round" stroke-linecap="butt" d="m478.93176 161.85301l0 0c0 -12.706894 10.300964 -23.007874 23.007874 -23.007874l0 0c6.102051 0 11.954224 2.4240417 16.269043 6.738861c4.3148193 4.314804 6.7388306 10.166946 6.7388306 16.269012l0 0c0 12.706909 -10.300964 23.007874 -23.007874 23.007874l0 0c-12.706909 0 -23.007874 -10.300964 -23.007874 -23.007874z" fill-rule="evenodd"/><path fill="#000000" fill-opacity="0.0" d="m470.93176 140.97375l63.40155 0l0 42.015747l-63.40155 0z" fill-rule="evenodd"/><path fill="#000000" d="m496.1664 167.89375l0 -5.65625l-5.15625 -7.703125l2.15625 0l2.640625 4.03125q0.71875 1.125 1.34375 2.265625q0.609375 -1.046875 1.46875 -2.359375l2.578125 -3.9375l2.0625 0l-5.328125 7.703125l0 5.65625l-1.765625 0zm11.912323 -2.15625l0 -3.671875l-3.640625 0l0 -1.515625l3.640625 0l0 -3.640625l1.546875 0l0 3.640625l3.640625 0l0 1.515625l-3.640625 0l0 3.671875l-1.546875 0z" fill-rule="nonzero"/><path fill="#cfe2f3" d="m480.3176 326.43307l0 0c0 -12.706909 10.300964 -23.007874 23.007874 -23.007874l0 0c6.102051 0 11.954193 2.4240417 16.269012 6.7388306c4.3148193 4.3148193 6.7388306 10.166962 6.7388306 16.269043l0 0c0 12.706879 -10.300964 23.007874 -23.007843 23.007874l0 0c-12.706909 0 -23.007874 -10.300995 -23.007874 -23.007874z" fill-rule="evenodd"/><path stroke="#000000" stroke-width="1.0" stroke-linejoin="round" stroke-linecap="butt" d="m480.3176 326.43307l0 0c0 -12.706909 10.300964 -23.007874 23.007874 -23.007874l0 0c6.102051 0 11.954193 2.4240417 16.269012 6.7388306c4.3148193 4.3148193 6.7388306 10.166962 6.7388306 16.269043l0 0c0 12.706879 -10.300964 23.007874 -23.007843 23.007874l0 0c-12.706909 0 -23.007874 -10.300995 -23.007874 -23.007874z" fill-rule="evenodd"/><path fill="#000000" fill-opacity="0.0" d="m471.62466 305.4252l63.40158 0l0 42.015747l-63.40158 0z" fill-rule="evenodd"/><path fill="#000000" d="m500.05722 332.34518l0 -5.65625l-5.15625 -7.703125l2.15625 0l2.640625 4.03125q0.71875 1.125 1.34375 2.265625q0.609375 -1.046875 1.46875 -2.359375l2.578125 -3.9375l2.0625 0l-5.328125 7.703125l0 5.65625l-1.765625 0zm6.1206665 -4.015625l0 -1.640625l5.03125 0l0 1.640625l-5.03125 0z" fill-rule="nonzero"/><path fill="#f4cccc" d="m562.0971 244.69292l0 0c0 -12.706894 10.300964 -23.007874 23.007874 -23.007874l0 0c6.102051 0 11.954224 2.4240265 16.269043 6.738846c4.3148193 4.3148193 6.7388306 10.166962 6.7388306 16.269028l0 0c0 12.706894 -10.300964 23.007858 -23.007874 23.007858l0 0c-12.706909 0 -23.007874 -10.300964 -23.007874 -23.007858z" fill-rule="evenodd"/><path stroke="#000000" stroke-width="1.0" stroke-linejoin="round" stroke-linecap="butt" d="m562.0971 244.69292l0 0c0 -12.706894 10.300964 -23.007874 23.007874 -23.007874l0 0c6.102051 0 11.954224 2.4240265 16.269043 6.738846c4.3148193 4.3148193 6.7388306 10.166962 6.7388306 16.269028l0 0c0 12.706894 -10.300964 23.007858 -23.007874 23.007858l0 0c-12.706909 0 -23.007874 -10.300964 -23.007874 -23.007858z" fill-rule="evenodd"/><path fill="#000000" fill-opacity="0.0" d="m554.0971 223.81364l63.40155 0l0 42.015762l-63.40155 0z" fill-rule="evenodd"/><path fill="#000000" d="m574.2068 250.73364l5.171875 -6.953125l-4.5625 -6.40625l2.109375 0l2.421875 3.4375q0.75 1.0625 1.078125 1.625q0.4375 -0.71875 1.046875 -1.515625l2.6875 -3.546875l1.921875 0l-4.6875 6.296875l5.0625 7.0625l-2.1875 0l-3.359375 -4.765625q-0.28125 -0.40625 -0.59375 -0.890625q-0.4375 0.734375 -0.625 1.0l-3.359375 4.65625l-2.125 0zm17.037292 -2.15625l0 -3.671875l-3.640625 0l0 -1.515625l3.640625 0l0 -3.640625l1.546875 0l0 3.640625l3.640625 0l0 1.515625l-3.640625 0l0 3.671875l-1.546875 0z" fill-rule="nonzero"/><path fill="#cfe2f3" d="m401.1811 244.82152l0 0c0 -12.706894 10.300995 -23.007874 23.007874 -23.007874l0 0c6.1020813 0 11.954224 2.4240417 16.269043 6.738861c4.3148193 4.314804 6.7388306 10.166946 6.7388306 16.269012l0 0c0 12.706894 -10.300964 23.007889 -23.007874 23.007889l0 0c-12.706879 0 -23.007874 -10.300995 -23.007874 -23.007889z" fill-rule="evenodd"/><path stroke="#000000" stroke-width="1.0" stroke-linejoin="round" stroke-linecap="butt" d="m401.1811 244.82152l0 0c0 -12.706894 10.300995 -23.007874 23.007874 -23.007874l0 0c6.1020813 0 11.954224 2.4240417 16.269043 6.738861c4.3148193 4.314804 6.7388306 10.166946 6.7388306 16.269012l0 0c0 12.706894 -10.300964 23.007889 -23.007874 23.007889l0 0c-12.706879 0 -23.007874 -10.300995 -23.007874 -23.007889z" fill-rule="evenodd"/><path fill="#000000" fill-opacity="0.0" d="m392.4882 223.81364l63.40158 0l0 42.015762l-63.40158 0z" fill-rule="evenodd"/><path fill="#000000" d="m414.93896 250.73364l5.171875 -6.953125l-4.5625 -6.40625l2.109375 0l2.421875 3.4375q0.75 1.0625 1.078125 1.625q0.4375 -0.71875 1.046875 -1.515625l2.6875 -3.546875l1.921875 0l-4.6875 6.296875l5.0625 7.0625l-2.1875 0l-3.359375 -4.765625q-0.28125 -0.40625 -0.59375 -0.890625q-0.4375 0.734375 -0.625 1.0l-3.359375 4.65625l-2.125 0zm12.959198 -4.015625l0 -1.640625l5.03125 0l0 1.640625l-5.03125 0z" fill-rule="nonzero"/><path fill="#f3f3f3" d="m452.5013 242.75066l8.120117 -7.130615l0 4.350647l6.7921143 0l0 -35.13954l34.386536 0l0 -7.0942383l-4.350647 0l7.130615 -8.120117l7.130615 8.120117l-4.350647 0l0 7.0942383l34.386566 0l0 35.13954l6.7921143 0l0 -4.350647l8.120117 7.130615l-8.120117 7.130615l0 -4.350647l-6.7921143 0l0 35.13954l-34.386566 0l0 7.0942383l4.350647 0l-7.130615 8.120117l-7.130615 -8.120117l4.350647 0l0 -7.0942383l-34.386536 0l0 -35.13954l-6.7921143 0l0 4.350647z" fill-rule="evenodd"/><path stroke="#000000" stroke-width="1.0" stroke-linejoin="round" stroke-linecap="butt" d="m452.5013 242.75066l8.120117 -7.130615l0 4.350647l6.7921143 0l0 -35.13954l34.386536 0l0 -7.0942383l-4.350647 0l7.130615 -8.120117l7.130615 8.120117l-4.350647 0l0 7.0942383l34.386566 0l0 35.13954l6.7921143 0l0 -4.350647l8.120117 7.130615l-8.120117 7.130615l0 -4.350647l-6.7921143 0l0 35.13954l-34.386566 0l0 7.0942383l4.350647 0l-7.130615 8.120117l-7.130615 -8.120117l4.350647 0l0 -7.0942383l-34.386536 0l0 -35.13954l-6.7921143 0l0 4.350647z" fill-rule="evenodd"/><path fill="#000000" d="m478.3534 244.45566l1.3125 -0.109375q0.09375 0.78125 0.421875 1.296875q0.34375 0.5 1.0625 0.8125q0.71875 0.3125 1.609375 0.3125q0.796875 0 1.40625 -0.234375q0.609375 -0.234375 0.90625 -0.640625q0.296875 -0.421875 0.296875 -0.90625q0 -0.5 -0.296875 -0.859375q-0.28125 -0.375 -0.9375 -0.625q-0.421875 -0.171875 -1.875 -0.515625q-1.4375 -0.34375 -2.015625 -0.65625q-0.75 -0.390625 -1.125 -0.96875q-0.359375 -0.59375 -0.359375 -1.3125q0 -0.796875 0.4375 -1.484375q0.453125 -0.6875 1.3125 -1.046875q0.875 -0.359375 1.9375 -0.359375q1.171875 0 2.0625 0.375q0.890625 0.375 1.359375 1.109375q0.484375 0.734375 0.515625 1.65625l-1.328125 0.09375q-0.109375 -1.0 -0.734375 -1.5q-0.609375 -0.515625 -1.8125 -0.515625q-1.265625 0 -1.84375 0.46875q-0.578125 0.46875 -0.578125 1.109375q0 0.5625 0.421875 0.9375q0.390625 0.359375 2.078125 0.75q1.703125 0.375 2.328125 0.65625q0.921875 0.421875 1.359375 1.078125q0.4375 0.640625 0.4375 1.484375q0 0.84375 -0.484375 1.59375q-0.484375 0.734375 -1.390625 1.140625q-0.890625 0.40625 -2.015625 0.40625q-1.421875 0 -2.390625 -0.40625q-0.953125 -0.421875 -1.5 -1.25q-0.546875 -0.828125 -0.578125 -1.890625zm15.291229 0.921875l1.328125 0.171875q-0.3125 1.171875 -1.171875 1.8125q-0.84375 0.640625 -2.171875 0.640625q-1.671875 0 -2.65625 -1.015625q-0.96875 -1.03125 -0.96875 -2.890625q0 -1.921875 0.984375 -2.96875q1.0 -1.0625 2.578125 -1.0625q1.515625 0 2.484375 1.03125q0.96875 1.03125 0.96875 2.921875q0 0.109375 -0.015625 0.34375l-5.65625 0q0.0625 1.25 0.703125 1.921875q0.640625 0.65625 1.59375 0.65625q0.703125 0 1.203125 -0.359375q0.5 -0.375 0.796875 -1.203125zm-4.234375 -2.078125l4.25 0q-0.09375 -0.953125 -0.484375 -1.4375q-0.625 -0.75 -1.609375 -0.75q-0.875 0 -1.484375 0.59375q-0.609375 0.59375 -0.671875 1.59375zm7.1823425 4.53125l0 -7.59375l1.15625 0l0 1.078125q0.84375 -1.25 2.421875 -1.25q0.6875 0 1.265625 0.25q0.578125 0.234375 0.859375 0.640625q0.28125 0.40625 0.40625 0.953125q0.0625 0.359375 0.0625 1.25l0 4.671875l-1.28125 0l0 -4.625q0 -0.78125 -0.15625 -1.171875q-0.15625 -0.390625 -0.546875 -0.625q-0.375 -0.234375 -0.890625 -0.234375q-0.8125 0 -1.421875 0.53125q-0.59375 0.515625 -0.59375 1.96875l0 4.15625l-1.28125 0zm7.635498 -2.265625l1.265625 -0.203125q0.109375 0.765625 0.59375 1.171875q0.5 0.40625 1.375 0.40625q0.890625 0 1.3125 -0.359375q0.4375 -0.359375 0.4375 -0.84375q0 -0.4375 -0.375 -0.6875q-0.265625 -0.171875 -1.3125 -0.4375q-1.421875 -0.359375 -1.96875 -0.609375q-0.546875 -0.265625 -0.828125 -0.734375q-0.28125 -0.46875 -0.28125 -1.015625q0 -0.515625 0.21875 -0.9375q0.234375 -0.4375 0.640625 -0.734375q0.296875 -0.21875 0.8125 -0.359375q0.53125 -0.15625 1.125 -0.15625q0.890625 0 1.5625 0.265625q0.671875 0.25 1.0 0.6875q0.328125 0.4375 0.4375 1.171875l-1.25 0.171875q-0.09375 -0.578125 -0.5 -0.90625q-0.40625 -0.34375 -1.15625 -0.34375q-0.890625 0 -1.28125 0.296875q-0.375 0.296875 -0.375 0.6875q0 0.25 0.15625 0.453125q0.15625 0.203125 0.5 0.34375q0.1875 0.078125 1.140625 0.328125q1.359375 0.359375 1.890625 0.59375q0.546875 0.234375 0.859375 0.6875q0.3125 0.4375 0.3125 1.09375q0 0.640625 -0.375 1.21875q-0.375 0.5625 -1.09375 0.875q-0.703125 0.3125 -1.59375 0.3125q-1.484375 0 -2.265625 -0.609375q-0.765625 -0.625 -0.984375 -1.828125zm7.359375 -1.53125q0 -2.109375 1.171875 -3.125q0.984375 -0.84375 2.390625 -0.84375q1.578125 0 2.5625 1.03125q1.0 1.015625 1.0 2.828125q0 1.46875 -0.4375 2.3125q-0.4375 0.828125 -1.28125 1.296875q-0.84375 0.46875 -1.84375 0.46875q-1.59375 0 -2.578125 -1.015625q-0.984375 -1.03125 -0.984375 -2.953125zm1.328125 0q0 1.453125 0.625 2.1875q0.640625 0.71875 1.609375 0.71875q0.96875 0 1.59375 -0.71875q0.640625 -0.734375 0.640625 -2.234375q0 -1.40625 -0.640625 -2.125q-0.640625 -0.734375 -1.59375 -0.734375q-0.96875 0 -1.609375 0.71875q-0.625 0.71875 -0.625 2.1875zm7.291748 3.796875l0 -7.59375l1.15625 0l0 1.140625q0.453125 -0.796875 0.828125 -1.046875q0.375 -0.265625 0.8125 -0.265625q0.65625 0 1.328125 0.40625l-0.4375 1.203125q-0.46875 -0.28125 -0.953125 -0.28125q-0.421875 0 -0.765625 0.25q-0.328125 0.25 -0.46875 0.703125q-0.21875 0.6875 -0.21875 1.5l0 3.984375l-1.28125 0zm4.380615 -2.265625l1.265625 -0.203125q0.109375 0.765625 0.59375 1.171875q0.5 0.40625 1.375 0.40625q0.890625 0 1.3125 -0.359375q0.4375 -0.359375 0.4375 -0.84375q0 -0.4375 -0.375 -0.6875q-0.265625 -0.171875 -1.3125 -0.4375q-1.421875 -0.359375 -1.96875 -0.609375q-0.546875 -0.265625 -0.828125 -0.734375q-0.28125 -0.46875 -0.28125 -1.015625q0 -0.515625 0.21875 -0.9375q0.234375 -0.4375 0.640625 -0.734375q0.296875 -0.21875 0.8125 -0.359375q0.53125 -0.15625 1.125 -0.15625q0.890625 0 1.5625 0.265625q0.671875 0.25 1.0 0.6875q0.328125 0.4375 0.4375 1.171875l-1.25 0.171875q-0.09375 -0.578125 -0.5 -0.90625q-0.40625 -0.34375 -1.15625 -0.34375q-0.890625 0 -1.28125 0.296875q-0.375 0.296875 -0.375 0.6875q0 0.25 0.15625 0.453125q0.15625 0.203125 0.5 0.34375q0.1875 0.078125 1.140625 0.328125q1.359375 0.359375 1.890625 0.59375q0.546875 0.234375 0.859375 0.6875q0.3125 0.4375 0.3125 1.09375q0 0.640625 -0.375 1.21875q-0.375 0.5625 -1.09375 0.875q-0.703125 0.3125 -1.59375 0.3125q-1.484375 0 -2.265625 -0.609375q-0.765625 -0.625 -0.984375 -1.828125z" fill-rule="nonzero"/><path fill="#f3f3f3" d="m195.3727 245.37007l0 0c0 -43.774002 35.485855 -79.25984 79.25984 -79.25984l0 0c21.021027 0 41.18109 8.350571 56.045166 23.214676c14.864105 14.864105 23.214691 35.024155 23.214691 56.045166l0 0c0 43.774002 -35.48584 79.25984 -79.25986 79.25984l0 0c-43.773987 0 -79.25984 -35.48584 -79.25984 -79.25984z" fill-rule="evenodd"/><path stroke="#000000" stroke-width="1.0" stroke-linejoin="round" stroke-linecap="butt" d="m195.3727 245.37007l0 0c0 -43.774002 35.485855 -79.25984 79.25984 -79.25984l0 0c21.021027 0 41.18109 8.350571 56.045166 23.214676c14.864105 14.864105 23.214691 35.024155 23.214691 56.045166l0 0c0 43.774002 -35.48584 79.25984 -79.25986 79.25984l0 0c-43.773987 0 -79.25984 -35.48584 -79.25984 -79.25984z" fill-rule="evenodd"/><path fill="#f4cccc" d="m250.93176 162.53018l0 0c0 -12.706894 10.300964 -23.007874 23.007874 -23.007874l0 0c6.102051 0 11.954193 2.4240417 16.269012 6.738846c4.3148193 4.3148193 6.738861 10.166962 6.738861 16.269028l0 0c0 12.706894 -10.300964 23.007874 -23.007874 23.007874l0 0c-12.706909 0 -23.007874 -10.30098 -23.007874 -23.007874z" fill-rule="evenodd"/><path stroke="#000000" stroke-width="1.0" stroke-linejoin="round" stroke-linecap="butt" d="m250.93176 162.53018l0 0c0 -12.706894 10.300964 -23.007874 23.007874 -23.007874l0 0c6.102051 0 11.954193 2.4240417 16.269012 6.738846c4.3148193 4.3148193 6.738861 10.166962 6.738861 16.269028l0 0c0 12.706894 -10.300964 23.007874 -23.007874 23.007874l0 0c-12.706909 0 -23.007874 -10.30098 -23.007874 -23.007874z" fill-rule="evenodd"/><path fill="#000000" fill-opacity="0.0" d="m242.93176 141.65092l63.40158 0l0 42.015747l-63.40158 0z" fill-rule="evenodd"/><path fill="#000000" d="m268.1664 168.57092l0 -5.65625l-5.15625 -7.703125l2.15625 0l2.640625 4.03125q0.71875 1.125 1.34375 2.265625q0.609375 -1.046875 1.46875 -2.359375l2.578125 -3.9375l2.0625 0l-5.328125 7.703125l0 5.65625l-1.765625 0zm11.912323 -2.15625l0 -3.671875l-3.640625 0l0 -1.515625l3.640625 0l0 -3.640625l1.546875 0l0 3.640625l3.640625 0l0 1.515625l-3.640625 0l0 3.671875l-1.546875 0z" fill-rule="nonzero"/><path fill="#cfe2f3" d="m252.31758 327.11023l0 0c0 -12.706879 10.30098 -23.007874 23.007889 -23.007874l0 0c6.102051 0 11.954193 2.4240417 16.269012 6.738861c4.3148193 4.3148193 6.738861 10.166962 6.738861 16.269012l0 0c0 12.706909 -10.300995 23.007874 -23.007874 23.007874l0 0c-12.706909 0 -23.007889 -10.300964 -23.007889 -23.007874z" fill-rule="evenodd"/><path stroke="#000000" stroke-width="1.0" stroke-linejoin="round" stroke-linecap="butt" d="m252.31758 327.11023l0 0c0 -12.706879 10.30098 -23.007874 23.007889 -23.007874l0 0c6.102051 0 11.954193 2.4240417 16.269012 6.738861c4.3148193 4.3148193 6.738861 10.166962 6.738861 16.269012l0 0c0 12.706909 -10.300995 23.007874 -23.007874 23.007874l0 0c-12.706909 0 -23.007889 -10.300964 -23.007889 -23.007874z" fill-rule="evenodd"/><path fill="#000000" fill-opacity="0.0" d="m243.62466 306.10236l63.40158 0l0 42.015747l-63.40158 0z" fill-rule="evenodd"/><path fill="#000000" d="m272.05722 333.02237l0 -5.65625l-5.15625 -7.703125l2.15625 0l2.640625 4.03125q0.71875 1.125 1.34375 2.265625q0.609375 -1.046875 1.46875 -2.359375l2.578125 -3.9375l2.0625 0l-5.328125 7.703125l0 5.65625l-1.765625 0zm6.1206665 -4.015625l0 -1.640625l5.03125 0l0 1.640625l-5.03125 0z" fill-rule="nonzero"/><path fill="#f4cccc" d="m334.0971 245.37007l0 0c0 -12.706894 10.300995 -23.007874 23.007874 -23.007874l0 0c6.1020813 0 11.954224 2.4240417 16.269043 6.738861c4.314789 4.314804 6.7388306 10.166946 6.7388306 16.269012l0 0c0 12.706894 -10.300964 23.007889 -23.007874 23.007889l0 0c-12.706879 0 -23.007874 -10.300995 -23.007874 -23.007889z" fill-rule="evenodd"/><path stroke="#000000" stroke-width="1.0" stroke-linejoin="round" stroke-linecap="butt" d="m334.0971 245.37007l0 0c0 -12.706894 10.300995 -23.007874 23.007874 -23.007874l0 0c6.1020813 0 11.954224 2.4240417 16.269043 6.738861c4.314789 4.314804 6.7388306 10.166946 6.7388306 16.269012l0 0c0 12.706894 -10.300964 23.007889 -23.007874 23.007889l0 0c-12.706879 0 -23.007874 -10.300995 -23.007874 -23.007889z" fill-rule="evenodd"/><path fill="#000000" fill-opacity="0.0" d="m326.0971 224.49081l63.40158 0l0 42.015747l-63.40158 0z" fill-rule="evenodd"/><path fill="#000000" d="m346.20676 251.41081l5.171875 -6.953125l-4.5625 -6.40625l2.109375 0l2.421875 3.4375q0.75 1.0625 1.078125 1.625q0.4375 -0.71875 1.046875 -1.515625l2.6875 -3.546875l1.921875 0l-4.6875 6.296875l5.0625 7.0625l-2.1875 0l-3.359375 -4.765625q-0.28125 -0.40625 -0.59375 -0.890625q-0.4375 0.734375 -0.625 1.0l-3.359375 4.65625l-2.125 0zm17.037323 -2.15625l0 -3.671875l-3.640625 0l0 -1.515625l3.640625 0l0 -3.640625l1.546875 0l0 3.640625l3.640625 0l0 1.515625l-3.640625 0l0 3.671875l-1.546875 0z" fill-rule="nonzero"/><path fill="#cfe2f3" d="m173.1811 245.49869l0 0c0 -12.706894 10.300964 -23.007874 23.007874 -23.007874l0 0c6.102066 0 11.954208 2.4240417 16.269012 6.738846c4.3148193 4.3148193 6.738861 10.166962 6.738861 16.269028l0 0c0 12.706909 -10.30098 23.007874 -23.007874 23.007874l0 0c-12.706909 0 -23.007874 -10.300964 -23.007874 -23.007874z" fill-rule="evenodd"/><path stroke="#000000" stroke-width="1.0" stroke-linejoin="round" stroke-linecap="butt" d="m173.1811 245.49869l0 0c0 -12.706894 10.300964 -23.007874 23.007874 -23.007874l0 0c6.102066 0 11.954208 2.4240417 16.269012 6.738846c4.3148193 4.3148193 6.738861 10.166962 6.738861 16.269028l0 0c0 12.706909 -10.30098 23.007874 -23.007874 23.007874l0 0c-12.706909 0 -23.007874 -10.300964 -23.007874 -23.007874z" fill-rule="evenodd"/><path fill="#000000" fill-opacity="0.0" d="m164.48819 224.49081l63.40158 0l0 42.015747l-63.40158 0z" fill-rule="evenodd"/><path fill="#000000" d="m186.93898 251.41081l5.171875 -6.953125l-4.5625 -6.40625l2.109375 0l2.421875 3.4375q0.75 1.0625 1.078125 1.625q0.4375 -0.71875 1.046875 -1.515625l2.6875 -3.546875l1.921875 0l-4.6875 6.296875l5.0625 7.0625l-2.1875 0l-3.359375 -4.765625q-0.28125 -0.40625 -0.59375 -0.890625q-0.4375 0.734375 -0.625 1.0l-3.359375 4.65625l-2.125 0zm12.959198 -4.015625l0 -1.640625l5.03125 0l0 1.640625l-5.03125 0z" fill-rule="nonzero"/><path fill="#f3f3f3" d="m224.50131 243.42783l8.120117 -7.1306305l0 4.350662l6.7921143 0l0 -35.13954l34.386536 0l0 -7.0942383l-4.350647 0l7.130615 -8.120117l7.130615 8.120117l-4.350647 0l0 7.0942383l34.386536 0l0 35.13954l6.7921143 0l0 -4.350662l8.120117 7.1306305l-8.120117 7.130615l0 -4.350662l-6.7921143 0l0 35.13954l-34.386536 0l0 7.0942383l4.350647 0l-7.130615 8.120117l-7.130615 -8.120117l4.350647 0l0 -7.0942383l-34.386536 0l0 -35.13954l-6.7921143 0l0 4.350662z" fill-rule="evenodd"/><path stroke="#000000" stroke-width="1.0" stroke-linejoin="round" stroke-linecap="butt" d="m224.50131 243.42783l8.120117 -7.1306305l0 4.350662l6.7921143 0l0 -35.13954l34.386536 0l0 -7.0942383l-4.350647 0l7.130615 -8.120117l7.130615 8.120117l-4.350647 0l0 7.0942383l34.386536 0l0 35.13954l6.7921143 0l0 -4.350662l8.120117 7.1306305l-8.120117 7.130615l0 -4.350662l-6.7921143 0l0 35.13954l-34.386536 0l0 7.0942383l4.350647 0l-7.130615 8.120117l-7.130615 -8.120117l4.350647 0l0 -7.0942383l-34.386536 0l0 -35.13954l-6.7921143 0l0 4.350662z" fill-rule="evenodd"/><path fill="#000000" d="m250.3534 245.13283l1.3125 -0.109375q0.09375 0.78125 0.421875 1.296875q0.34375 0.5 1.0625 0.8125q0.71875 0.3125 1.609375 0.3125q0.796875 0 1.40625 -0.234375q0.609375 -0.234375 0.90625 -0.640625q0.296875 -0.421875 0.296875 -0.90625q0 -0.5 -0.296875 -0.859375q-0.28125 -0.375 -0.9375 -0.625q-0.421875 -0.171875 -1.875 -0.515625q-1.4375 -0.34375 -2.015625 -0.65625q-0.75 -0.390625 -1.125 -0.96875q-0.359375 -0.59375 -0.359375 -1.3125q0 -0.796875 0.4375 -1.484375q0.453125 -0.6875 1.3125 -1.046875q0.875 -0.359375 1.9375 -0.359375q1.171875 0 2.0625 0.375q0.890625 0.375 1.359375 1.109375q0.484375 0.734375 0.515625 1.65625l-1.328125 0.09375q-0.109375 -1.0 -0.734375 -1.5q-0.609375 -0.515625 -1.8125 -0.515625q-1.265625 0 -1.84375 0.46875q-0.578125 0.46875 -0.578125 1.109375q0 0.5625 0.421875 0.9375q0.390625 0.359375 2.078125 0.75q1.703125 0.375 2.328125 0.65625q0.921875 0.421875 1.359375 1.078125q0.4375 0.640625 0.4375 1.484375q0 0.84375 -0.484375 1.59375q-0.484375 0.734375 -1.390625 1.140625q-0.890625 0.40625 -2.015625 0.40625q-1.421875 0 -2.390625 -0.40625q-0.953125 -0.421875 -1.5 -1.25q-0.546875 -0.828125 -0.578125 -1.890625zm15.291229 0.921875l1.328125 0.171875q-0.3125 1.171875 -1.171875 1.8125q-0.84375 0.640625 -2.171875 0.640625q-1.671875 0 -2.65625 -1.015625q-0.96875 -1.03125 -0.96875 -2.890625q0 -1.921875 0.984375 -2.96875q1.0 -1.0625 2.578125 -1.0625q1.515625 0 2.484375 1.03125q0.96875 1.03125 0.96875 2.921875q0 0.109375 -0.015625 0.34375l-5.65625 0q0.0625 1.25 0.703125 1.921875q0.640625 0.65625 1.59375 0.65625q0.703125 0 1.203125 -0.359375q0.5 -0.375 0.796875 -1.203125zm-4.234375 -2.078125l4.25 0q-0.09375 -0.953125 -0.484375 -1.4375q-0.625 -0.75 -1.609375 -0.75q-0.875 0 -1.484375 0.59375q-0.609375 0.59375 -0.671875 1.59375zm7.1823425 4.53125l0 -7.59375l1.15625 0l0 1.078125q0.84375 -1.25 2.421875 -1.25q0.6875 0 1.265625 0.25q0.578125 0.234375 0.859375 0.640625q0.28125 0.40625 0.40625 0.953125q0.0625 0.359375 0.0625 1.25l0 4.671875l-1.28125 0l0 -4.625q0 -0.78125 -0.15625 -1.171875q-0.15625 -0.390625 -0.546875 -0.625q-0.375 -0.234375 -0.890625 -0.234375q-0.8125 0 -1.421875 0.53125q-0.59375 0.515625 -0.59375 1.96875l0 4.15625l-1.28125 0zm7.635498 -2.265625l1.265625 -0.203125q0.109375 0.765625 0.59375 1.171875q0.5 0.40625 1.375 0.40625q0.890625 0 1.3125 -0.359375q0.4375 -0.359375 0.4375 -0.84375q0 -0.4375 -0.375 -0.6875q-0.265625 -0.171875 -1.3125 -0.4375q-1.421875 -0.359375 -1.96875 -0.609375q-0.546875 -0.265625 -0.828125 -0.734375q-0.28125 -0.46875 -0.28125 -1.015625q0 -0.515625 0.21875 -0.9375q0.234375 -0.4375 0.640625 -0.734375q0.296875 -0.21875 0.8125 -0.359375q0.53125 -0.15625 1.125 -0.15625q0.890625 0 1.5625 0.265625q0.671875 0.25 1.0 0.6875q0.328125 0.4375 0.4375 1.171875l-1.25 0.171875q-0.09375 -0.578125 -0.5 -0.90625q-0.40625 -0.34375 -1.15625 -0.34375q-0.890625 0 -1.28125 0.296875q-0.375 0.296875 -0.375 0.6875q0 0.25 0.15625 0.453125q0.15625 0.203125 0.5 0.34375q0.1875 0.078125 1.140625 0.328125q1.359375 0.359375 1.890625 0.59375q0.546875 0.234375 0.859375 0.6875q0.3125 0.4375 0.3125 1.09375q0 0.640625 -0.375 1.21875q-0.375 0.5625 -1.09375 0.875q-0.703125 0.3125 -1.59375 0.3125q-1.484375 0 -2.265625 -0.609375q-0.765625 -0.625 -0.984375 -1.828125zm7.359375 -1.53125q0 -2.109375 1.171875 -3.125q0.984375 -0.84375 2.390625 -0.84375q1.578125 0 2.5625 1.03125q1.0 1.015625 1.0 2.828125q0 1.46875 -0.4375 2.3125q-0.4375 0.828125 -1.28125 1.296875q-0.84375 0.46875 -1.84375 0.46875q-1.59375 0 -2.578125 -1.015625q-0.984375 -1.03125 -0.984375 -2.953125zm1.328125 0q0 1.453125 0.625 2.1875q0.640625 0.71875 1.609375 0.71875q0.96875 0 1.59375 -0.71875q0.640625 -0.734375 0.640625 -2.234375q0 -1.40625 -0.640625 -2.125q-0.640625 -0.734375 -1.59375 -0.734375q-0.96875 0 -1.609375 0.71875q-0.625 0.71875 -0.625 2.1875zm7.2917175 3.796875l0 -7.59375l1.15625 0l0 1.140625q0.453125 -0.796875 0.828125 -1.046875q0.375 -0.265625 0.8125 -0.265625q0.65625 0 1.328125 0.40625l-0.4375 1.203125q-0.46875 -0.28125 -0.953125 -0.28125q-0.421875 0 -0.765625 0.25q-0.328125 0.25 -0.46875 0.703125q-0.21875 0.6875 -0.21875 1.5l0 3.984375l-1.28125 0zm4.3806458 -2.265625l1.265625 -0.203125q0.109375 0.765625 0.59375 1.171875q0.5 0.40625 1.375 0.40625q0.890625 0 1.3125 -0.359375q0.4375 -0.359375 0.4375 -0.84375q0 -0.4375 -0.375 -0.6875q-0.265625 -0.171875 -1.3125 -0.4375q-1.421875 -0.359375 -1.96875 -0.609375q-0.546875 -0.265625 -0.828125 -0.734375q-0.28125 -0.46875 -0.28125 -1.015625q0 -0.515625 0.21875 -0.9375q0.234375 -0.4375 0.640625 -0.734375q0.296875 -0.21875 0.8125 -0.359375q0.53125 -0.15625 1.125 -0.15625q0.890625 0 1.5625 0.265625q0.671875 0.25 1.0 0.6875q0.328125 0.4375 0.4375 1.171875l-1.25 0.171875q-0.09375 -0.578125 -0.5 -0.90625q-0.40625 -0.34375 -1.15625 -0.34375q-0.890625 0 -1.28125 0.296875q-0.375 0.296875 -0.375 0.6875q0 0.25 0.15625 0.453125q0.15625 0.203125 0.5 0.34375q0.1875 0.078125 1.140625 0.328125q1.359375 0.359375 1.890625 0.59375q0.546875 0.234375 0.859375 0.6875q0.3125 0.4375 0.3125 1.09375q0 0.640625 -0.375 1.21875q-0.375 0.5625 -1.09375 0.875q-0.703125 0.3125 -1.59375 0.3125q-1.484375 0 -2.265625 -0.609375q-0.765625 -0.625 -0.984375 -1.828125z" fill-rule="nonzero"/><path fill="#f3f3f3" d="m656.03674 246.04855l0 0c0 -43.774002 35.48584 -79.25984 79.25983 -79.25984l0 0c21.021057 0 41.18109 8.350571 56.045166 23.214676c14.864136 14.864105 23.214722 35.024155 23.214722 56.045166l0 0c0 43.774017 -35.48584 79.25986 -79.25989 79.25986l0 0c-43.773987 0 -79.25983 -35.48584 -79.25983 -79.25986z" fill-rule="evenodd"/><path stroke="#000000" stroke-width="1.0" stroke-linejoin="round" stroke-linecap="butt" d="m656.03674 246.04855l0 0c0 -43.774002 35.48584 -79.25984 79.25983 -79.25984l0 0c21.021057 0 41.18109 8.350571 56.045166 23.214676c14.864136 14.864105 23.214722 35.024155 23.214722 56.045166l0 0c0 43.774017 -35.48584 79.25986 -79.25989 79.25986l0 0c-43.773987 0 -79.25983 -35.48584 -79.25983 -79.25986z" fill-rule="evenodd"/><path fill="#f4cccc" d="m711.5958 163.20866l0 0c0 -12.706894 10.300964 -23.007874 23.007874 -23.007874l0 0c6.102051 0 11.954163 2.4240265 16.268982 6.738846c4.3148193 4.3148193 6.7388916 10.166962 6.7388916 16.269028l0 0c0 12.706894 -10.301025 23.007874 -23.007874 23.007874l0 0c-12.706909 0 -23.007874 -10.30098 -23.007874 -23.007874z" fill-rule="evenodd"/><path stroke="#000000" stroke-width="1.0" stroke-linejoin="round" stroke-linecap="butt" d="m711.5958 163.20866l0 0c0 -12.706894 10.300964 -23.007874 23.007874 -23.007874l0 0c6.102051 0 11.954163 2.4240265 16.268982 6.738846c4.3148193 4.3148193 6.7388916 10.166962 6.7388916 16.269028l0 0c0 12.706894 -10.301025 23.007874 -23.007874 23.007874l0 0c-12.706909 0 -23.007874 -10.30098 -23.007874 -23.007874z" fill-rule="evenodd"/><path fill="#000000" fill-opacity="0.0" d="m703.5958 142.32939l63.40155 0l0 42.015747l-63.40155 0z" fill-rule="evenodd"/><path fill="#000000" d="m728.83044 169.24939l0 -5.65625l-5.15625 -7.703125l2.15625 0l2.640625 4.03125q0.71875 1.125 1.34375 2.265625q0.609375 -1.046875 1.46875 -2.359375l2.578125 -3.9375l2.0625 0l-5.328125 7.703125l0 5.65625l-1.765625 0zm11.9123535 -2.15625l0 -3.671875l-3.640625 0l0 -1.515625l3.640625 0l0 -3.640625l1.546875 0l0 3.640625l3.640625 0l0 1.515625l-3.640625 0l0 3.671875l-1.546875 0z" fill-rule="nonzero"/><path fill="#cfe2f3" d="m712.9816 327.78873l0 0c0 -12.706909 10.300964 -23.007874 23.007874 -23.007874l0 0c6.102051 0 11.954224 2.4240112 16.269043 6.7388306c4.3148193 4.3148193 6.7388306 10.166962 6.7388306 16.269043l0 0c0 12.706879 -10.300964 23.007874 -23.007874 23.007874l0 0c-12.706909 0 -23.007874 -10.300995 -23.007874 -23.007874z" fill-rule="evenodd"/><path stroke="#000000" stroke-width="1.0" stroke-linejoin="round" stroke-linecap="butt" d="m712.9816 327.78873l0 0c0 -12.706909 10.300964 -23.007874 23.007874 -23.007874l0 0c6.102051 0 11.954224 2.4240112 16.269043 6.7388306c4.3148193 4.3148193 6.7388306 10.166962 6.7388306 16.269043l0 0c0 12.706879 -10.300964 23.007874 -23.007874 23.007874l0 0c-12.706909 0 -23.007874 -10.300995 -23.007874 -23.007874z" fill-rule="evenodd"/><path fill="#000000" fill-opacity="0.0" d="m704.2887 306.78085l63.40161 0l0 42.015747l-63.40161 0z" fill-rule="evenodd"/><path fill="#000000" d="m732.72125 333.70084l0 -5.65625l-5.15625 -7.703125l2.15625 0l2.640625 4.03125q0.71875 1.125 1.34375 2.265625q0.609375 -1.046875 1.46875 -2.359375l2.578125 -3.9375l2.0625 0l-5.328125 7.703125l0 5.65625l-1.765625 0zm6.1206665 -4.015625l0 -1.640625l5.03125 0l0 1.640625l-5.03125 0z" fill-rule="nonzero"/><path fill="#f4cccc" d="m794.76117 246.04855l0 0c0 -12.706894 10.300964 -23.007874 23.007874 -23.007874l0 0c6.102051 0 11.954224 2.4240417 16.268982 6.738846c4.3148193 4.3148193 6.7388916 10.166962 6.7388916 16.269028l0 0c0 12.706909 -10.300964 23.007874 -23.007874 23.007874l0 0c-12.706909 0 -23.007874 -10.300964 -23.007874 -23.007874z" fill-rule="evenodd"/><path stroke="#000000" stroke-width="1.0" stroke-linejoin="round" stroke-linecap="butt" d="m794.76117 246.04855l0 0c0 -12.706894 10.300964 -23.007874 23.007874 -23.007874l0 0c6.102051 0 11.954224 2.4240417 16.268982 6.738846c4.3148193 4.3148193 6.7388916 10.166962 6.7388916 16.269028l0 0c0 12.706909 -10.300964 23.007874 -23.007874 23.007874l0 0c-12.706909 0 -23.007874 -10.300964 -23.007874 -23.007874z" fill-rule="evenodd"/><path fill="#000000" fill-opacity="0.0" d="m786.76117 225.1693l63.40155 0l0 42.01573l-63.40155 0z" fill-rule="evenodd"/><path fill="#000000" d="m806.8708 252.0893l5.171875 -6.953125l-4.5625 -6.40625l2.109375 0l2.421875 3.4375q0.75 1.0625 1.078125 1.625q0.4375 -0.71875 1.046875 -1.515625l2.6875 -3.546875l1.921875 0l-4.6875 6.296875l5.0625 7.0625l-2.1875 0l-3.359375 -4.765625q-0.28125 -0.40625 -0.59375 -0.890625q-0.4375 0.734375 -0.625 1.0l-3.359375 4.65625l-2.125 0zm17.037354 -2.15625l0 -3.671875l-3.640625 0l0 -1.515625l3.640625 0l0 -3.640625l1.546875 0l0 3.640625l3.640625 0l0 1.515625l-3.640625 0l0 3.671875l-1.546875 0z" fill-rule="nonzero"/><path fill="#cfe2f3" d="m633.84515 246.17717l0 0c0 -12.706909 10.300964 -23.007874 23.007874 -23.007874l0 0c6.102051 0 11.954224 2.4240265 16.269043 6.738846c4.3147583 4.3148193 6.7388306 10.166962 6.7388306 16.269028l0 0c0 12.706894 -10.300964 23.007858 -23.007874 23.007858l0 0c-12.706909 0 -23.007874 -10.300964 -23.007874 -23.007858z" fill-rule="evenodd"/><path stroke="#000000" stroke-width="1.0" stroke-linejoin="round" stroke-linecap="butt" d="m633.84515 246.17717l0 0c0 -12.706909 10.300964 -23.007874 23.007874 -23.007874l0 0c6.102051 0 11.954224 2.4240265 16.269043 6.738846c4.3147583 4.3148193 6.7388306 10.166962 6.7388306 16.269028l0 0c0 12.706894 -10.300964 23.007858 -23.007874 23.007858l0 0c-12.706909 0 -23.007874 -10.300964 -23.007874 -23.007858z" fill-rule="evenodd"/><path fill="#000000" fill-opacity="0.0" d="m625.1522 225.1693l63.40161 0l0 42.01573l-63.40161 0z" fill-rule="evenodd"/><path fill="#000000" d="m647.603 252.0893l5.171875 -6.953125l-4.5625 -6.40625l2.109375 0l2.421875 3.4375q0.75 1.0625 1.078125 1.625q0.4375 -0.71875 1.046875 -1.515625l2.6875 -3.546875l1.921875 0l-4.6875 6.296875l5.0625 7.0625l-2.1875 0l-3.359375 -4.765625q-0.28125 -0.40625 -0.59375 -0.890625q-0.4375 0.734375 -0.625 1.0l-3.359375 4.65625l-2.125 0zm12.9591675 -4.015625l0 -1.640625l5.03125 0l0 1.640625l-5.03125 0z" fill-rule="nonzero"/><path fill="#f3f3f3" d="m685.16534 244.1063l8.120117 -7.130615l0 4.350662l6.7921143 0l0 -35.139557l34.386536 0l0 -7.094223l-4.350647 0l7.130615 -8.120117l7.130615 8.120117l-4.350647 0l0 7.094223l34.386536 0l0 35.139557l6.7921143 0l0 -4.350662l8.120117 7.130615l-8.120117 7.1306305l0 -4.350662l-6.7921143 0l0 35.139557l-34.386536 0l0 7.094208l4.350647 0l-7.130615 8.120117l-7.130615 -8.120117l4.350647 0l0 -7.094208l-34.386536 0l0 -35.139557l-6.7921143 0l0 4.350662z" fill-rule="evenodd"/><path stroke="#000000" stroke-width="1.0" stroke-linejoin="round" stroke-linecap="butt" d="m685.16534 244.1063l8.120117 -7.130615l0 4.350662l6.7921143 0l0 -35.139557l34.386536 0l0 -7.094223l-4.350647 0l7.130615 -8.120117l7.130615 8.120117l-4.350647 0l0 7.094223l34.386536 0l0 35.139557l6.7921143 0l0 -4.350662l8.120117 7.130615l-8.120117 7.1306305l0 -4.350662l-6.7921143 0l0 35.139557l-34.386536 0l0 7.094208l4.350647 0l-7.130615 8.120117l-7.130615 -8.120117l4.350647 0l0 -7.094208l-34.386536 0l0 -35.139557l-6.7921143 0l0 4.350662z" fill-rule="evenodd"/><path fill="#000000" d="m711.01746 245.8113l1.3125 -0.109375q0.09375 0.78125 0.421875 1.296875q0.34375 0.5 1.0625 0.8125q0.71875 0.3125 1.609375 0.3125q0.796875 0 1.40625 -0.234375q0.609375 -0.234375 0.90625 -0.640625q0.296875 -0.421875 0.296875 -0.90625q0 -0.5 -0.296875 -0.859375q-0.28125 -0.375 -0.9375 -0.625q-0.421875 -0.171875 -1.875 -0.515625q-1.4375 -0.34375 -2.015625 -0.65625q-0.75 -0.390625 -1.125 -0.96875q-0.359375 -0.59375 -0.359375 -1.3125q0 -0.796875 0.4375 -1.484375q0.453125 -0.6875 1.3125 -1.046875q0.875 -0.359375 1.9375 -0.359375q1.171875 0 2.0625 0.375q0.890625 0.375 1.359375 1.109375q0.484375 0.734375 0.515625 1.65625l-1.328125 0.09375q-0.109375 -1.0 -0.734375 -1.5q-0.609375 -0.515625 -1.8125 -0.515625q-1.265625 0 -1.84375 0.46875q-0.578125 0.46875 -0.578125 1.109375q0 0.5625 0.421875 0.9375q0.390625 0.359375 2.078125 0.75q1.703125 0.375 2.328125 0.65625q0.921875 0.421875 1.359375 1.078125q0.4375 0.640625 0.4375 1.484375q0 0.84375 -0.484375 1.59375q-0.484375 0.734375 -1.390625 1.140625q-0.890625 0.40625 -2.015625 0.40625q-1.421875 0 -2.390625 -0.40625q-0.953125 -0.421875 -1.5 -1.25q-0.546875 -0.828125 -0.578125 -1.890625zm15.291199 0.921875l1.328125 0.171875q-0.3125 1.171875 -1.171875 1.8125q-0.84375 0.640625 -2.171875 0.640625q-1.671875 0 -2.65625 -1.015625q-0.96875 -1.03125 -0.96875 -2.890625q0 -1.921875 0.984375 -2.96875q1.0 -1.0625 2.578125 -1.0625q1.515625 0 2.484375 1.03125q0.96875 1.03125 0.96875 2.921875q0 0.109375 -0.015625 0.34375l-5.65625 0q0.0625 1.25 0.703125 1.921875q0.640625 0.65625 1.59375 0.65625q0.703125 0 1.203125 -0.359375q0.5 -0.375 0.796875 -1.203125zm-4.234375 -2.078125l4.25 0q-0.09375 -0.953125 -0.484375 -1.4375q-0.625 -0.75 -1.609375 -0.75q-0.875 0 -1.484375 0.59375q-0.609375 0.59375 -0.671875 1.59375zm7.182373 4.53125l0 -7.59375l1.15625 0l0 1.078125q0.84375 -1.25 2.421875 -1.25q0.6875 0 1.265625 0.25q0.578125 0.234375 0.859375 0.640625q0.28125 0.40625 0.40625 0.953125q0.0625 0.359375 0.0625 1.25l0 4.671875l-1.28125 0l0 -4.625q0 -0.78125 -0.15625 -1.171875q-0.15625 -0.390625 -0.546875 -0.625q-0.375 -0.234375 -0.890625 -0.234375q-0.8125 0 -1.421875 0.53125q-0.59375 0.515625 -0.59375 1.96875l0 4.15625l-1.28125 0zm7.635498 -2.265625l1.265625 -0.203125q0.109375 0.765625 0.59375 1.171875q0.5 0.40625 1.375 0.40625q0.890625 0 1.3125 -0.359375q0.4375 -0.359375 0.4375 -0.84375q0 -0.4375 -0.375 -0.6875q-0.265625 -0.171875 -1.3125 -0.4375q-1.421875 -0.359375 -1.96875 -0.609375q-0.546875 -0.265625 -0.828125 -0.734375q-0.28125 -0.46875 -0.28125 -1.015625q0 -0.515625 0.21875 -0.9375q0.234375 -0.4375 0.640625 -0.734375q0.296875 -0.21875 0.8125 -0.359375q0.53125 -0.15625 1.125 -0.15625q0.890625 0 1.5625 0.265625q0.671875 0.25 1.0 0.6875q0.328125 0.4375 0.4375 1.171875l-1.25 0.171875q-0.09375 -0.578125 -0.5 -0.90625q-0.40625 -0.34375 -1.15625 -0.34375q-0.890625 0 -1.28125 0.296875q-0.375 0.296875 -0.375 0.6875q0 0.25 0.15625 0.453125q0.15625 0.203125 0.5 0.34375q0.1875 0.078125 1.140625 0.328125q1.359375 0.359375 1.890625 0.59375q0.546875 0.234375 0.859375 0.6875q0.3125 0.4375 0.3125 1.09375q0 0.640625 -0.375 1.21875q-0.375 0.5625 -1.09375 0.875q-0.703125 0.3125 -1.59375 0.3125q-1.484375 0 -2.265625 -0.609375q-0.765625 -0.625 -0.984375 -1.828125zm7.359375 -1.53125q0 -2.109375 1.171875 -3.125q0.984375 -0.84375 2.390625 -0.84375q1.578125 0 2.5625 1.03125q1.0 1.015625 1.0 2.828125q0 1.46875 -0.4375 2.3125q-0.4375 0.828125 -1.28125 1.296875q-0.84375 0.46875 -1.84375 0.46875q-1.59375 0 -2.578125 -1.015625q-0.984375 -1.03125 -0.984375 -2.953125zm1.328125 0q0 1.453125 0.625 2.1875q0.640625 0.71875 1.609375 0.71875q0.96875 0 1.59375 -0.71875q0.640625 -0.734375 0.640625 -2.234375q0 -1.40625 -0.640625 -2.125q-0.640625 -0.734375 -1.59375 -0.734375q-0.96875 0 -1.609375 0.71875q-0.625 0.71875 -0.625 2.1875zm7.291687 3.796875l0 -7.59375l1.15625 0l0 1.140625q0.453125 -0.796875 0.828125 -1.046875q0.375 -0.265625 0.8125 -0.265625q0.65625 0 1.328125 0.40625l-0.4375 1.203125q-0.46875 -0.28125 -0.953125 -0.28125q-0.421875 0 -0.765625 0.25q-0.328125 0.25 -0.46875 0.703125q-0.21875 0.6875 -0.21875 1.5l0 3.984375l-1.28125 0zm4.3806763 -2.265625l1.265625 -0.203125q0.109375 0.765625 0.59375 1.171875q0.5 0.40625 1.375 0.40625q0.890625 0 1.3125 -0.359375q0.4375 -0.359375 0.4375 -0.84375q0 -0.4375 -0.375 -0.6875q-0.265625 -0.171875 -1.3125 -0.4375q-1.421875 -0.359375 -1.96875 -0.609375q-0.546875 -0.265625 -0.828125 -0.734375q-0.28125 -0.46875 -0.28125 -1.015625q0 -0.515625 0.21875 -0.9375q0.234375 -0.4375 0.640625 -0.734375q0.296875 -0.21875 0.8125 -0.359375q0.53125 -0.15625 1.125 -0.15625q0.890625 0 1.5625 0.265625q0.671875 0.25 1.0 0.6875q0.328125 0.4375 0.4375 1.171875l-1.25 0.171875q-0.09375 -0.578125 -0.5 -0.90625q-0.40625 -0.34375 -1.15625 -0.34375q-0.890625 0 -1.28125 0.296875q-0.375 0.296875 -0.375 0.6875q0 0.25 0.15625 0.453125q0.15625 0.203125 0.5 0.34375q0.1875 0.078125 1.140625 0.328125q1.359375 0.359375 1.890625 0.59375q0.546875 0.234375 0.859375 0.6875q0.3125 0.4375 0.3125 1.09375q0 0.640625 -0.375 1.21875q-0.375 0.5625 -1.09375 0.875q-0.703125 0.3125 -1.59375 0.3125q-1.484375 0 -2.265625 -0.609375q-0.765625 -0.625 -0.984375 -1.828125z" fill-rule="nonzero"/></g></svg>