<?xml version="1.0" encoding="UTF-8" standalone="no"?>
<!DOCTYPE svg PUBLIC "-//W3C//DTD SVG 1.1//EN"
 "http://www.w3.org/Graphics/SVG/1.1/DTD/svg11.dtd">
<!-- Generated by graphviz version 2.40.1 (20161225.0304)
 -->
<!-- Title: %3 Pages: 1 -->
<svg width="194pt" height="194pt"
 viewBox="0.00 0.00 194.23 193.58" xmlns="http://www.w3.org/2000/svg" xmlns:xlink="http://www.w3.org/1999/xlink">
<g id="graph0" class="graph" transform="scale(1 1) rotate(0) translate(4 189.5817)">
<title>%3</title>
<polygon fill="#ffffff" stroke="transparent" points="-4,4 -4,-189.5817 190.2316,-189.5817 190.2316,4 -4,4"/>
<!-- D -->
<g id="node1" class="node">
<title>D</title>
<ellipse fill="none" stroke="#000000" stroke-width="3" cx="93.1158" cy="-20.7982" rx="20.5982" ry="20.5982"/>
<text text-anchor="middle" x="93.1158" y="-17.0982" font-family="Times,serif" font-size="14.00" fill="#000000">00</text>
</g>
<!-- D&#45;&gt;D -->
<g id="edge2" class="edge">
<title>D&#45;&gt;D</title>
<path fill="none" stroke="#000000" d="M113.0782,-27.3488C123.0338,-28.2551 131.914,-26.0716 131.914,-20.7982 131.914,-17.5023 128.4451,-15.4134 123.413,-14.5314"/>
<polygon fill="#000000" stroke="#000000" points="123.1706,-11.0236 113.0782,-14.2476 122.9783,-18.0209 123.1706,-11.0236"/>
<text text-anchor="middle" x="141.414" y="-17.0982" font-family="Times,serif" font-size="14.00" fill="#000000">0/0</text>
</g>
<!-- H -->
<g id="node2" class="node">
<title>H</title>
<ellipse fill="none" stroke="#000000" cx="20.7982" cy="-93.1158" rx="20.5982" ry="20.5982"/>
<text text-anchor="middle" x="20.7982" y="-89.4158" font-family="Times,serif" font-size="14.00" fill="#000000">01</text>
</g>
<!-- D&#45;&gt;H -->
<g id="edge6" class="edge">
<title>D&#45;&gt;H</title>
<path fill="none" stroke="#000000" d="M78.1315,-35.7824C67.9502,-45.9637 54.3107,-59.6032 42.8896,-71.0244"/>
<polygon fill="#000000" stroke="#000000" points="40.3594,-68.6048 35.7632,-78.1507 45.3092,-73.5545 40.3594,-68.6048"/>
<text text-anchor="middle" x="51.0106" y="-57.2034" font-family="Times,serif" font-size="14.00" fill="#000000">1/0</text>
</g>
<!-- F -->
<g id="node3" class="node">
<title>F</title>
<ellipse fill="none" stroke="#000000" cx="165.4335" cy="-93.1158" rx="20.5982" ry="20.5982"/>
<text text-anchor="middle" x="165.4335" y="-89.4158" font-family="Times,serif" font-size="14.00" fill="#000000">10</text>
</g>
<!-- H&#45;&gt;F -->
<g id="edge1" class="edge">
<title>H&#45;&gt;F</title>
<path fill="none" stroke="#000000" d="M41.2141,-97.9887C65.657,-100.2108 106.8193,-100.46 135.0128,-98.7364"/>
<polygon fill="#000000" stroke="#000000" points="135.4108,-102.2165 145.1214,-97.9792 134.8878,-95.2361 135.4108,-102.2165"/>
<text text-anchor="middle" x="78.6135" y="-102.1626" font-family="Times,serif" font-size="14.00" fill="#000000">0/0</text>
</g>
<!-- C -->
<g id="node4" class="node">
<title>C</title>
<ellipse fill="none" stroke="#000000" cx="93.1158" cy="-165.4335" rx="20.2975" ry="20.2975"/>
<text text-anchor="middle" x="93.1158" y="-161.7335" font-family="Times,serif" font-size="14.00" fill="#000000">11</text>
</g>
<!-- H&#45;&gt;C -->
<g id="edge7" class="edge">
<title>H&#45;&gt;C</title>
<path fill="none" stroke="#000000" d="M35.7824,-108.1001C46.0995,-118.4171 59.9676,-132.2852 71.48,-143.7977"/>
<polygon fill="#000000" stroke="#000000" points="69.0982,-146.3657 78.6442,-150.9619 74.048,-141.4159 69.0982,-146.3657"/>
<text text-anchor="middle" x="44.1312" y="-129.7489" font-family="Times,serif" font-size="14.00" fill="#000000">1/0</text>
</g>
<!-- F&#45;&gt;D -->
<g id="edge5" class="edge">
<title>F&#45;&gt;D</title>
<path fill="none" stroke="#000000" d="M150.4492,-78.1315C140.2679,-67.9502 126.6284,-54.3107 115.2072,-42.8896"/>
<polygon fill="#000000" stroke="#000000" points="117.6269,-40.3594 108.0809,-35.7632 112.6771,-45.3092 117.6269,-40.3594"/>
<text text-anchor="middle" x="123.3282" y="-64.3106" font-family="Times,serif" font-size="14.00" fill="#000000">0/1</text>
</g>
<!-- F&#45;&gt;H -->
<g id="edge4" class="edge">
<title>F&#45;&gt;H</title>
<path fill="none" stroke="#000000" d="M145.0175,-88.2429C120.5746,-86.0208 79.4124,-85.7716 51.2188,-87.4952"/>
<polygon fill="#000000" stroke="#000000" points="50.8208,-84.0151 41.1102,-88.2524 51.3438,-90.9956 50.8208,-84.0151"/>
<text text-anchor="middle" x="88.6182" y="-76.6691" font-family="Times,serif" font-size="14.00" fill="#000000">1/1</text>
</g>
<!-- C&#45;&gt;F -->
<g id="edge8" class="edge">
<title>C&#45;&gt;F</title>
<path fill="none" stroke="#000000" d="M107.4035,-151.1458C117.6685,-140.8807 131.7005,-126.8488 143.3948,-115.1544"/>
<polygon fill="#000000" stroke="#000000" points="146.0828,-117.4162 150.679,-107.8703 141.133,-112.4665 146.0828,-117.4162"/>
<text text-anchor="middle" x="115.8991" y="-121.9501" font-family="Times,serif" font-size="14.00" fill="#000000">0/1</text>
</g>
<!-- C&#45;&gt;C -->
<g id="edge3" class="edge">
<title>C&#45;&gt;C</title>
<path fill="none" stroke="#000000" d="M112.3517,-171.9462C122.2982,-172.9481 131.264,-170.7772 131.264,-165.4335 131.264,-162.0936 127.7617,-159.9932 122.7067,-159.1321"/>
<polygon fill="#000000" stroke="#000000" points="122.4211,-155.6257 112.3517,-158.9208 122.2782,-162.6242 122.4211,-155.6257"/>
<text text-anchor="middle" x="140.764" y="-161.7335" font-family="Times,serif" font-size="14.00" fill="#000000">1/1</text>
</g>
</g>
</svg>
