<?xml version="1.0" encoding="UTF-8" standalone="no"?>
<!DOCTYPE svg PUBLIC "-//W3C//DTD SVG 1.1//EN"
 "http://www.w3.org/Graphics/SVG/1.1/DTD/svg11.dtd">
<!-- Generated by graphviz version 2.40.1 (20161225.0304)
 -->
<!-- Title: %3 Pages: 1 -->
<svg width="135pt" height="79pt"
 viewBox="0.00 0.00 135.00 78.94" xmlns="http://www.w3.org/2000/svg" xmlns:xlink="http://www.w3.org/1999/xlink">
<g id="graph0" class="graph" transform="scale(1 1) rotate(0) translate(4 74.9401)">
<title>%3</title>
<polygon fill="#ffffff" stroke="transparent" points="-4,4 -4,-74.9401 131,-74.9401 131,4 -4,4"/>
<!-- A -->
<g id="node1" class="node">
<title>A</title>
<ellipse fill="none" stroke="#000000" stroke-width="3" cx="18" cy="-19.9401" rx="18" ry="18"/>
<text text-anchor="middle" x="18" y="-16.2401" font-family="Times,serif" font-size="14.00" fill="#000000">A</text>
</g>
<!-- A&#45;&gt;A -->
<g id="edge3" class="edge">
<title>A&#45;&gt;A</title>
<path fill="none" stroke="#000000" d="M10.3321,-36.2304C8.4831,-46.3293 11.0391,-55.9401 18,-55.9401 22.4594,-55.9401 25.1109,-51.9958 25.9546,-46.5058"/>
<polygon fill="#000000" stroke="#000000" points="29.4456,-46.1288 25.6679,-36.2304 22.4483,-46.3242 29.4456,-46.1288"/>
<text text-anchor="middle" x="18" y="-59.7401" font-family="Times,serif" font-size="14.00" fill="#000000">0/0</text>
</g>
<!-- B -->
<g id="node2" class="node">
<title>B</title>
<ellipse fill="none" stroke="#000000" cx="109" cy="-19.9401" rx="18" ry="18"/>
<text text-anchor="middle" x="109" y="-16.2401" font-family="Times,serif" font-size="14.00" fill="#000000">B</text>
</g>
<!-- A&#45;&gt;B -->
<g id="edge4" class="edge">
<title>A&#45;&gt;B</title>
<path fill="none" stroke="#000000" d="M36.4152,-19.9401C49.0791,-19.9401 66.1442,-19.9401 80.5459,-19.9401"/>
<polygon fill="#000000" stroke="#000000" points="80.9228,-23.4402 90.9227,-19.9401 80.9227,-16.4402 80.9228,-23.4402"/>
<text text-anchor="middle" x="63.5" y="-23.7401" font-family="Times,serif" font-size="14.00" fill="#000000">1/1</text>
</g>
<!-- B&#45;&gt;A -->
<g id="edge2" class="edge">
<title>B&#45;&gt;A</title>
<path fill="none" stroke="#000000" d="M93.4772,-10.2044C87.3404,-6.8936 80.0728,-3.6098 73,-1.9401 64.7815,0 62.2185,0 54,-1.9401 50.2426,-2.8271 46.4302,-4.1697 42.7616,-5.7298"/>
<polygon fill="#000000" stroke="#000000" points="40.9972,-2.6954 33.5228,-10.2044 44.0485,-8.9954 40.9972,-2.6954"/>
<text text-anchor="middle" x="63.5" y="-5.7401" font-family="Times,serif" font-size="14.00" fill="#000000">1/0</text>
</g>
<!-- B&#45;&gt;B -->
<g id="edge1" class="edge">
<title>B&#45;&gt;B</title>
<path fill="none" stroke="#000000" d="M101.3321,-36.2304C99.4831,-46.3293 102.0391,-55.9401 109,-55.9401 113.4594,-55.9401 116.1109,-51.9958 116.9546,-46.5058"/>
<polygon fill="#000000" stroke="#000000" points="120.4456,-46.1288 116.6679,-36.2304 113.4483,-46.3242 120.4456,-46.1288"/>
<text text-anchor="middle" x="109" y="-59.7401" font-family="Times,serif" font-size="14.00" fill="#000000">0/0</text>
</g>
</g>
</svg>
