<svg width="100%" height="100%" xmlns:xlink="http://www.w3.org/1999/xlink" joint-selector="svg" id="v-2"><defs joint-selector="defs"></defs><g joint-selector="layers" class="joint-layers" transform="matrix(1,0,0,1,-2218,-1430)"><g joint-selector="back" class="joint-back-layer"></g><g joint-selector="cells" class="joint-cells-layer joint-viewport"><g model-id="l_1_96" data-type="Or" id="j_2" class="joint-cell joint-type-or joint-element joint-theme-default" magnet="false" fill="#ffffff" stroke="none" transform="translate(2275,1460)"><g id="v-33" class="joint-port" transform="matrix(1,0,0,1,30,8)"><g id="v-34" port="in1" port-group="in" class="joint-port-body"><line joint-selector="wire" id="v-39" x2="-50" stroke="#4B4F6A" x1="0" y1="0" y2="0" class="wire"></line><circle joint-selector="port" id="v-40" magnet="passive" r="7" stroke="#999" fill="white" stroke-width="2" stroke-opacity="0.5" transform="matrix(1,0,0,1,-50,0)" class="port"></circle><text joint-selector="bits" id="v-41" class="bits" font-size="7pt" xml:space="preserve" display="none" y="0.8em" fill="black" text-anchor="start" transform="matrix(1,0,0,1,-42,-10)"><tspan dy="0" style="fill-opacity: 0; stroke-opacity: 0;" class="v-line v-empty-line">-</tspan></text><text joint-selector="iolabel" id="v-42" text-vertical-anchor="middle" fill="black" font-size="8pt" text-anchor="start" transform="matrix(1,0,0,1,5,0)" class="iolabel"></text><path joint-selector="decor" id="v-43" stroke="black" fill="transparent" class="decor"></path></g><text fill="#000000" joint-selector="text" class="joint-port-label" transform="matrix(1,0,0,1,-15,0)" id="v-44" y=".3em" text-anchor="end"></text></g><g id="v-35" class="joint-port" transform="matrix(1,0,0,1,30,24)"><g id="v-36" port="in2" port-group="in" class="joint-port-body"><line joint-selector="wire" class="wire" id="v-45" x2="-50" stroke="#4B4F6A" x1="0" y1="0" y2="0"></line><circle joint-selector="port" class="port" id="v-46" magnet="passive" r="7" stroke="#999" fill="white" stroke-width="2" stroke-opacity="0.5" transform="matrix(1,0,0,1,-50,0)"></circle><text joint-selector="bits" class="bits" id="v-47" font-size="7pt" xml:space="preserve" display="none" y="0.8em" fill="black" text-anchor="start" transform="matrix(1,0,0,1,-42,-10)"><tspan dy="0" style="fill-opacity: 0; stroke-opacity: 0;" class="v-line v-empty-line">-</tspan></text><text joint-selector="iolabel" class="iolabel" id="v-48" text-vertical-anchor="middle" fill="black" font-size="8pt" text-anchor="start" transform="matrix(1,0,0,1,5,0)"></text><path joint-selector="decor" class="decor" id="v-49" stroke="black" fill="transparent"></path></g><text fill="#000000" joint-selector="text" class="joint-port-label" transform="matrix(1,0,0,1,-15,0)" id="v-50" y=".3em" text-anchor="end"></text></g><g id="v-37" class="joint-port" transform="matrix(1,0,0,1,30,16)"><g id="v-38" port="out" port-group="out" class="joint-port-body"><line joint-selector="wire" class="wire" id="v-51" x2="50" stroke="#4B4F6A" x1="0" y1="0" y2="0"></line><circle joint-selector="port" class="port" id="v-52" magnet="true" r="7" stroke="#999" fill="white" stroke-width="2" stroke-opacity="0.5" transform="matrix(1,0,0,1,50,0)"></circle><text joint-selector="bits" class="bits" id="v-53" font-size="7pt" xml:space="preserve" display="none" y="0.8em" fill="black" text-anchor="end" transform="matrix(1,0,0,1,42,-10)"><tspan dy="0" style="fill-opacity: 0; stroke-opacity: 0;" class="v-line v-empty-line">-</tspan></text><text joint-selector="iolabel" class="iolabel" id="v-54" text-vertical-anchor="middle" fill="black" font-size="8pt" text-anchor="end" transform="matrix(1,0,0,1,-5,0)"></text><path joint-selector="decor" class="decor" id="v-55" stroke="black" fill="transparent"></path></g><text fill="#000000" joint-selector="text" class="joint-port-label" transform="matrix(1,0,0,1,-15,0)" id="v-56" y=".3em" text-anchor="end"></text></g><text joint-selector="label" id="v-32" font-size="8pt" xml:space="preserve" display="none" y="0.8em" fill="black" text-anchor="middle" transform="matrix(1,0,0,1,30,35)" class="label"><tspan dy="0" style="fill-opacity: 0; stroke-opacity: 0;" class="v-line v-empty-line">-</tspan></text><g joint-selector="body" id="v-31" stroke="black" stroke-width="2" transform="translate(-4, 0) scale(1)"><path joint-selector="gate" id="v-30" d="M14.3 0l1.6 2s4.5 5.6 4.5 14s-4.5 14-4.5 14l-1.6 2H28c3.8 0 16.6-.5 25-16h0A28 28 0 0028 0H16.8z" vector-effect="non-scaling-stroke" class="body gate"></path></g></g><!--z-index:2--></g><g joint-selector="front" class="joint-front-layer"></g><g joint-selector="tools" class="joint-tools-layer"></g></g></svg>