<?xml version="1.0" encoding="utf-8" standalone="no"?>
<!DOCTYPE svg PUBLIC "-//W3C//DTD SVG 1.1//EN"
  "http://www.w3.org/Graphics/SVG/1.1/DTD/svg11.dtd">
<svg xmlns:xlink="http://www.w3.org/1999/xlink" width="720pt" height="432pt" viewBox="0 0 720 432" xmlns="http://www.w3.org/2000/svg" version="1.1">
 <metadata>
  <rdf:RDF xmlns:dc="http://purl.org/dc/elements/1.1/" xmlns:cc="http://creativecommons.org/ns#" xmlns:rdf="http://www.w3.org/1999/02/22-rdf-syntax-ns#">
   <cc:Work>
    <dc:type rdf:resource="http://purl.org/dc/dcmitype/StillImage"/>
    <dc:date>2025-02-20T16:24:46.131204</dc:date>
    <dc:format>image/svg+xml</dc:format>
    <dc:creator>
     <cc:Agent>
      <dc:title>Matplotlib v3.10.0, https://matplotlib.org/</dc:title>
     </cc:Agent>
    </dc:creator>
   </cc:Work>
  </rdf:RDF>
 </metadata>
 <defs>
  <style type="text/css">*{stroke-linejoin: round; stroke-linecap: butt}</style>
 </defs>
 <g id="figure_1">
  <g id="patch_1">
   <path d="M 0 432 
L 720 432 
L 720 0 
L 0 0 
z
" style="fill: #ffffff"/>
  </g>
  <g id="axes_1">
   <g id="patch_2">
    <path d="M 45.93 392.82 
L 709.2 392.82 
L 709.2 40.16 
L 45.93 40.16 
z
" style="fill: #f8f9fa"/>
   </g>
   <g id="matplotlib.axis_1">
    <g id="xtick_1">
     <g id="line2d_1">
      <path d="M 76.078636 392.82 
L 76.078636 40.16 
" clip-path="url(#p16c501282a)" style="fill: none; stroke-dasharray: 2.96,1.28; stroke-dashoffset: 0; stroke: #808080; stroke-opacity: 0.7; stroke-width: 0.8"/>
     </g>
     <g id="line2d_2"/>
     <g id="text_1">
      <!-- 0 -->
      <g style="fill: #262626" transform="translate(73.298168 403.566875) scale(0.1 -0.1)">
       <defs>
        <path id="LiberationSans-30" d="M 3309 2203 
Q 3309 1569 3189 1136 
Q 3069 703 2861 436 
Q 2653 169 2372 53 
Q 2091 -63 1772 -63 
Q 1450 -63 1172 53 
Q 894 169 689 434 
Q 484 700 367 1133 
Q 250 1566 250 2203 
Q 250 2869 367 3305 
Q 484 3741 690 4000 
Q 897 4259 1178 4364 
Q 1459 4469 1791 4469 
Q 2106 4469 2382 4364 
Q 2659 4259 2865 4000 
Q 3072 3741 3190 3305 
Q 3309 2869 3309 2203 
z
M 2738 2203 
Q 2738 2728 2675 3076 
Q 2613 3425 2491 3633 
Q 2369 3841 2192 3927 
Q 2016 4013 1791 4013 
Q 1553 4013 1372 3925 
Q 1191 3838 1067 3630 
Q 944 3422 881 3073 
Q 819 2725 819 2203 
Q 819 1697 883 1350 
Q 947 1003 1070 792 
Q 1194 581 1372 489 
Q 1550 397 1778 397 
Q 2000 397 2178 489 
Q 2356 581 2479 792 
Q 2603 1003 2670 1350 
Q 2738 1697 2738 2203 
z
" transform="scale(0.015625)"/>
       </defs>
       <use xlink:href="#LiberationSans-30"/>
      </g>
     </g>
    </g>
    <g id="xtick_2">
     <g id="line2d_3">
      <path d="M 176.607601 392.82 
L 176.607601 40.16 
" clip-path="url(#p16c501282a)" style="fill: none; stroke-dasharray: 2.96,1.28; stroke-dashoffset: 0; stroke: #808080; stroke-opacity: 0.7; stroke-width: 0.8"/>
     </g>
     <g id="line2d_4"/>
     <g id="text_2">
      <!-- 500 -->
      <g style="fill: #262626" transform="translate(168.266194 403.566875) scale(0.1 -0.1)">
       <defs>
        <path id="LiberationSans-35" d="M 3291 1434 
Q 3291 1103 3191 828 
Q 3091 553 2894 354 
Q 2697 156 2405 46 
Q 2113 -63 1728 -63 
Q 1381 -63 1123 18 
Q 866 100 687 242 
Q 509 384 404 575 
Q 300 766 256 984 
L 825 1050 
Q 859 925 921 808 
Q 984 691 1092 598 
Q 1200 506 1358 451 
Q 1516 397 1741 397 
Q 1959 397 2137 464 
Q 2316 531 2442 662 
Q 2569 794 2637 984 
Q 2706 1175 2706 1422 
Q 2706 1625 2640 1795 
Q 2575 1966 2453 2089 
Q 2331 2213 2154 2281 
Q 1978 2350 1753 2350 
Q 1613 2350 1494 2325 
Q 1375 2300 1273 2256 
Q 1172 2213 1089 2155 
Q 1006 2097 934 2034 
L 384 2034 
L 531 4403 
L 3034 4403 
L 3034 3925 
L 1044 3925 
L 959 2528 
Q 1109 2644 1334 2726 
Q 1559 2809 1869 2809 
Q 2197 2809 2459 2709 
Q 2722 2609 2906 2426 
Q 3091 2244 3191 1991 
Q 3291 1738 3291 1434 
z
" transform="scale(0.015625)"/>
       </defs>
       <use xlink:href="#LiberationSans-35"/>
       <use xlink:href="#LiberationSans-30" transform="translate(55.615234 0)"/>
       <use xlink:href="#LiberationSans-30" transform="translate(111.230469 0)"/>
      </g>
     </g>
    </g>
    <g id="xtick_3">
     <g id="line2d_5">
      <path d="M 277.136565 392.82 
L 277.136565 40.16 
" clip-path="url(#p16c501282a)" style="fill: none; stroke-dasharray: 2.96,1.28; stroke-dashoffset: 0; stroke: #808080; stroke-opacity: 0.7; stroke-width: 0.8"/>
     </g>
     <g id="line2d_6"/>
     <g id="text_3">
      <!-- 1000 -->
      <g style="fill: #262626" transform="translate(266.01469 403.566875) scale(0.1 -0.1)">
       <defs>
        <path id="LiberationSans-31" d="M 488 0 
L 488 478 
L 1609 478 
L 1609 3866 
L 616 3156 
L 616 3688 
L 1656 4403 
L 2175 4403 
L 2175 478 
L 3247 478 
L 3247 0 
L 488 0 
z
" transform="scale(0.015625)"/>
       </defs>
       <use xlink:href="#LiberationSans-31"/>
       <use xlink:href="#LiberationSans-30" transform="translate(55.615234 0)"/>
       <use xlink:href="#LiberationSans-30" transform="translate(111.230469 0)"/>
       <use xlink:href="#LiberationSans-30" transform="translate(166.845703 0)"/>
      </g>
     </g>
    </g>
    <g id="xtick_4">
     <g id="line2d_7">
      <path d="M 377.665529 392.82 
L 377.665529 40.16 
" clip-path="url(#p16c501282a)" style="fill: none; stroke-dasharray: 2.96,1.28; stroke-dashoffset: 0; stroke: #808080; stroke-opacity: 0.7; stroke-width: 0.8"/>
     </g>
     <g id="line2d_8"/>
     <g id="text_4">
      <!-- 1500 -->
      <g style="fill: #262626" transform="translate(366.543654 403.566875) scale(0.1 -0.1)">
       <use xlink:href="#LiberationSans-31"/>
       <use xlink:href="#LiberationSans-35" transform="translate(55.615234 0)"/>
       <use xlink:href="#LiberationSans-30" transform="translate(111.230469 0)"/>
       <use xlink:href="#LiberationSans-30" transform="translate(166.845703 0)"/>
      </g>
     </g>
    </g>
    <g id="xtick_5">
     <g id="line2d_9">
      <path d="M 478.194493 392.82 
L 478.194493 40.16 
" clip-path="url(#p16c501282a)" style="fill: none; stroke-dasharray: 2.96,1.28; stroke-dashoffset: 0; stroke: #808080; stroke-opacity: 0.7; stroke-width: 0.8"/>
     </g>
     <g id="line2d_10"/>
     <g id="text_5">
      <!-- 2000 -->
      <g style="fill: #262626" transform="translate(467.072618 403.566875) scale(0.1 -0.1)">
       <defs>
        <path id="LiberationSans-32" d="M 322 0 
L 322 397 
Q 481 763 711 1042 
Q 941 1322 1194 1548 
Q 1447 1775 1695 1969 
Q 1944 2163 2144 2356 
Q 2344 2550 2467 2762 
Q 2591 2975 2591 3244 
Q 2591 3431 2534 3573 
Q 2478 3716 2372 3812 
Q 2266 3909 2117 3957 
Q 1969 4006 1788 4006 
Q 1619 4006 1470 3959 
Q 1322 3913 1206 3819 
Q 1091 3725 1017 3586 
Q 944 3447 922 3263 
L 347 3316 
Q 375 3553 478 3762 
Q 581 3972 762 4130 
Q 944 4288 1198 4378 
Q 1453 4469 1788 4469 
Q 2116 4469 2372 4391 
Q 2628 4313 2804 4159 
Q 2981 4006 3075 3781 
Q 3169 3556 3169 3263 
Q 3169 3041 3089 2841 
Q 3009 2641 2876 2459 
Q 2744 2278 2569 2109 
Q 2394 1941 2203 1780 
Q 2013 1619 1819 1461 
Q 1625 1303 1454 1143 
Q 1284 984 1150 820 
Q 1016 656 941 478 
L 3238 478 
L 3238 0 
L 322 0 
z
" transform="scale(0.015625)"/>
       </defs>
       <use xlink:href="#LiberationSans-32"/>
       <use xlink:href="#LiberationSans-30" transform="translate(55.615234 0)"/>
       <use xlink:href="#LiberationSans-30" transform="translate(111.230469 0)"/>
       <use xlink:href="#LiberationSans-30" transform="translate(166.845703 0)"/>
      </g>
     </g>
    </g>
    <g id="xtick_6">
     <g id="line2d_11">
      <path d="M 578.723457 392.82 
L 578.723457 40.16 
" clip-path="url(#p16c501282a)" style="fill: none; stroke-dasharray: 2.96,1.28; stroke-dashoffset: 0; stroke: #808080; stroke-opacity: 0.7; stroke-width: 0.8"/>
     </g>
     <g id="line2d_12"/>
     <g id="text_6">
      <!-- 2500 -->
      <g style="fill: #262626" transform="translate(567.601582 403.566875) scale(0.1 -0.1)">
       <use xlink:href="#LiberationSans-32"/>
       <use xlink:href="#LiberationSans-35" transform="translate(55.615234 0)"/>
       <use xlink:href="#LiberationSans-30" transform="translate(111.230469 0)"/>
       <use xlink:href="#LiberationSans-30" transform="translate(166.845703 0)"/>
      </g>
     </g>
    </g>
    <g id="xtick_7">
     <g id="line2d_13">
      <path d="M 679.252422 392.82 
L 679.252422 40.16 
" clip-path="url(#p16c501282a)" style="fill: none; stroke-dasharray: 2.96,1.28; stroke-dashoffset: 0; stroke: #808080; stroke-opacity: 0.7; stroke-width: 0.8"/>
     </g>
     <g id="line2d_14"/>
     <g id="text_7">
      <!-- 3000 -->
      <g style="fill: #262626" transform="translate(668.130547 403.566875) scale(0.1 -0.1)">
       <defs>
        <path id="LiberationSans-33" d="M 3278 1216 
Q 3278 913 3179 675 
Q 3081 438 2892 273 
Q 2703 109 2423 23 
Q 2144 -63 1784 -63 
Q 1375 -63 1095 39 
Q 816 141 634 308 
Q 453 475 362 689 
Q 272 903 244 1131 
L 825 1184 
Q 850 1009 917 865 
Q 984 722 1100 619 
Q 1216 516 1384 459 
Q 1553 403 1784 403 
Q 2209 403 2451 612 
Q 2694 822 2694 1234 
Q 2694 1478 2586 1626 
Q 2478 1775 2317 1858 
Q 2156 1941 1967 1969 
Q 1778 1997 1619 1997 
L 1300 1997 
L 1300 2484 
L 1606 2484 
Q 1766 2484 1937 2517 
Q 2109 2550 2251 2636 
Q 2394 2722 2486 2869 
Q 2578 3016 2578 3244 
Q 2578 3597 2370 3801 
Q 2163 4006 1753 4006 
Q 1381 4006 1151 3815 
Q 922 3625 884 3278 
L 319 3322 
Q 353 3613 478 3828 
Q 603 4044 795 4186 
Q 988 4328 1234 4398 
Q 1481 4469 1759 4469 
Q 2128 4469 2393 4376 
Q 2659 4284 2828 4126 
Q 2997 3969 3076 3756 
Q 3156 3544 3156 3303 
Q 3156 3109 3103 2940 
Q 3050 2772 2937 2637 
Q 2825 2503 2651 2406 
Q 2478 2309 2234 2259 
L 2234 2247 
Q 2500 2219 2697 2126 
Q 2894 2034 3022 1896 
Q 3150 1759 3214 1584 
Q 3278 1409 3278 1216 
z
" transform="scale(0.015625)"/>
       </defs>
       <use xlink:href="#LiberationSans-33"/>
       <use xlink:href="#LiberationSans-30" transform="translate(55.615234 0)"/>
       <use xlink:href="#LiberationSans-30" transform="translate(111.230469 0)"/>
       <use xlink:href="#LiberationSans-30" transform="translate(166.845703 0)"/>
      </g>
     </g>
    </g>
    <g id="text_8">
     <!-- Training Steps -->
     <g style="fill: #262626" transform="translate(336.225938 418.338125) scale(0.12 -0.12)">
      <defs>
       <path id="LiberationSans-Bold-54" d="M 2416 3691 
L 2416 0 
L 1494 0 
L 1494 3691 
L 72 3691 
L 72 4403 
L 3841 4403 
L 3841 3691 
L 2416 3691 
z
" transform="scale(0.015625)"/>
       <path id="LiberationSans-Bold-72" d="M 447 0 
L 447 2588 
Q 447 2697 445 2819 
Q 444 2941 439 3052 
Q 434 3163 431 3252 
Q 428 3341 422 3381 
L 1259 3381 
Q 1266 3344 1272 3251 
Q 1278 3159 1284 3050 
Q 1291 2941 1295 2833 
Q 1300 2725 1300 2659 
L 1313 2659 
Q 1378 2844 1443 2989 
Q 1509 3134 1598 3236 
Q 1688 3338 1813 3392 
Q 1938 3447 2122 3447 
Q 2200 3447 2276 3433 
Q 2353 3419 2394 3400 
L 2394 2666 
Q 2309 2684 2223 2698 
Q 2138 2713 2019 2713 
Q 1691 2713 1508 2447 
Q 1325 2181 1325 1659 
L 1325 0 
L 447 0 
z
" transform="scale(0.015625)"/>
       <path id="LiberationSans-Bold-61" d="M 1228 -63 
Q 984 -63 792 4 
Q 600 72 465 201 
Q 331 331 259 522 
Q 188 713 188 956 
Q 188 1256 292 1461 
Q 397 1666 578 1792 
Q 759 1919 1003 1976 
Q 1247 2034 1522 2038 
L 2250 2050 
L 2250 2222 
Q 2250 2406 2217 2529 
Q 2184 2653 2121 2731 
Q 2059 2809 1967 2842 
Q 1875 2875 1756 2875 
Q 1647 2875 1561 2853 
Q 1475 2831 1412 2776 
Q 1350 2722 1311 2630 
Q 1272 2538 1256 2397 
L 341 2441 
Q 378 2663 478 2845 
Q 578 3028 754 3162 
Q 931 3297 1189 3370 
Q 1447 3444 1794 3444 
Q 2109 3444 2356 3366 
Q 2603 3288 2775 3133 
Q 2947 2978 3037 2753 
Q 3128 2528 3128 2231 
L 3128 1000 
Q 3128 881 3139 787 
Q 3150 694 3179 630 
Q 3209 566 3264 533 
Q 3319 500 3406 500 
Q 3506 500 3600 519 
L 3600 44 
Q 3522 25 3459 9 
Q 3397 -6 3334 -15 
Q 3272 -25 3201 -31 
Q 3131 -38 3038 -38 
Q 2706 -38 2548 125 
Q 2391 288 2359 603 
L 2341 603 
Q 2166 288 1892 112 
Q 1619 -63 1228 -63 
z
M 2250 1566 
L 1800 1559 
Q 1659 1553 1532 1536 
Q 1406 1519 1311 1464 
Q 1216 1409 1159 1306 
Q 1103 1203 1103 1025 
Q 1103 784 1214 667 
Q 1325 550 1509 550 
Q 1678 550 1815 622 
Q 1953 694 2048 811 
Q 2144 928 2197 1081 
Q 2250 1234 2250 1394 
L 2250 1566 
z
" transform="scale(0.015625)"/>
       <path id="LiberationSans-Bold-69" d="M 447 3991 
L 447 4638 
L 1325 4638 
L 1325 3991 
L 447 3991 
z
M 447 0 
L 447 3381 
L 1325 3381 
L 1325 0 
L 447 0 
z
" transform="scale(0.015625)"/>
       <path id="LiberationSans-Bold-6e" d="M 2638 0 
L 2638 1897 
Q 2638 2094 2606 2258 
Q 2575 2422 2503 2539 
Q 2431 2656 2315 2722 
Q 2200 2788 2034 2788 
Q 1875 2788 1745 2717 
Q 1616 2647 1522 2517 
Q 1428 2388 1376 2208 
Q 1325 2028 1325 1813 
L 1325 0 
L 447 0 
L 447 2625 
Q 447 2734 445 2850 
Q 444 2966 439 3070 
Q 434 3175 431 3258 
Q 428 3341 422 3381 
L 1259 3381 
Q 1266 3344 1272 3261 
Q 1278 3178 1284 3078 
Q 1291 2978 1295 2878 
Q 1300 2778 1300 2709 
L 1313 2709 
Q 1491 3097 1759 3272 
Q 2028 3447 2400 3447 
Q 2706 3447 2917 3347 
Q 3128 3247 3261 3072 
Q 3394 2897 3453 2659 
Q 3513 2422 3513 2147 
L 3513 0 
L 2638 0 
z
" transform="scale(0.015625)"/>
       <path id="LiberationSans-Bold-67" d="M 1863 -1356 
Q 1528 -1356 1273 -1289 
Q 1019 -1222 839 -1101 
Q 659 -981 551 -814 
Q 444 -647 403 -447 
L 1281 -344 
Q 1328 -547 1483 -662 
Q 1638 -778 1888 -778 
Q 2044 -778 2173 -734 
Q 2303 -691 2395 -586 
Q 2488 -481 2539 -309 
Q 2591 -138 2591 116 
Q 2591 203 2591 293 
Q 2591 384 2594 459 
Q 2597 547 2597 628 
L 2591 628 
Q 2438 300 2161 153 
Q 1884 6 1503 6 
Q 1181 6 948 132 
Q 716 259 562 486 
Q 409 713 336 1027 
Q 263 1341 263 1719 
Q 263 2109 341 2426 
Q 419 2744 580 2972 
Q 741 3200 986 3323 
Q 1231 3447 1569 3447 
Q 1906 3447 2173 3303 
Q 2441 3159 2591 2838 
L 2606 2838 
Q 2606 2903 2611 2989 
Q 2616 3075 2622 3154 
Q 2628 3234 2636 3296 
Q 2644 3359 2650 3381 
L 3481 3381 
Q 3475 3269 3469 3066 
Q 3463 2863 3463 2600 
L 3463 103 
Q 3463 -266 3356 -539 
Q 3250 -813 3045 -994 
Q 2841 -1175 2542 -1265 
Q 2244 -1356 1863 -1356 
z
M 2597 1738 
Q 2597 2056 2534 2268 
Q 2472 2481 2372 2609 
Q 2272 2738 2142 2791 
Q 2013 2844 1881 2844 
Q 1713 2844 1583 2778 
Q 1453 2713 1362 2575 
Q 1272 2438 1225 2225 
Q 1178 2013 1178 1719 
Q 1178 1172 1353 894 
Q 1528 616 1875 616 
Q 2006 616 2136 667 
Q 2266 719 2369 848 
Q 2472 978 2534 1193 
Q 2597 1409 2597 1738 
z
" transform="scale(0.015625)"/>
       <path id="LiberationSans-Bold-20" transform="scale(0.015625)"/>
       <path id="LiberationSans-Bold-53" d="M 4019 1269 
Q 4019 969 3909 723 
Q 3800 478 3570 303 
Q 3341 128 2983 32 
Q 2625 -63 2131 -63 
Q 1694 -63 1359 15 
Q 1025 94 786 247 
Q 547 400 398 626 
Q 250 853 184 1147 
L 1075 1294 
Q 1113 1147 1184 1025 
Q 1256 903 1382 814 
Q 1509 725 1698 676 
Q 1888 628 2156 628 
Q 2625 628 2873 770 
Q 3122 913 3122 1216 
Q 3122 1397 3022 1512 
Q 2922 1628 2756 1703 
Q 2591 1778 2375 1828 
Q 2159 1878 1925 1925 
Q 1738 1969 1550 2016 
Q 1363 2063 1192 2128 
Q 1022 2194 875 2284 
Q 728 2375 620 2508 
Q 513 2641 452 2819 
Q 391 2997 391 3238 
Q 391 3566 522 3800 
Q 653 4034 886 4182 
Q 1119 4331 1441 4400 
Q 1763 4469 2144 4469 
Q 2575 4469 2883 4401 
Q 3191 4334 3398 4196 
Q 3606 4059 3726 3851 
Q 3847 3644 3903 3366 
L 3009 3244 
Q 2941 3528 2730 3672 
Q 2519 3816 2125 3816 
Q 1881 3816 1720 3773 
Q 1559 3731 1464 3659 
Q 1369 3588 1328 3492 
Q 1288 3397 1288 3291 
Q 1288 3128 1366 3023 
Q 1444 2919 1584 2848 
Q 1725 2778 1920 2729 
Q 2116 2681 2350 2631 
Q 2556 2588 2759 2539 
Q 2963 2491 3147 2425 
Q 3331 2359 3490 2265 
Q 3650 2172 3767 2036 
Q 3884 1900 3951 1712 
Q 4019 1525 4019 1269 
z
" transform="scale(0.015625)"/>
       <path id="LiberationSans-Bold-74" d="M 1313 -56 
Q 925 -56 715 155 
Q 506 366 506 794 
L 506 2788 
L 78 2788 
L 78 3381 
L 550 3381 
L 825 4175 
L 1375 4175 
L 1375 3381 
L 2016 3381 
L 2016 2788 
L 1375 2788 
L 1375 1031 
Q 1375 784 1469 667 
Q 1563 550 1759 550 
Q 1841 550 1906 562 
Q 1972 575 2053 594 
L 2053 50 
Q 1891 -3 1709 -29 
Q 1528 -56 1313 -56 
z
" transform="scale(0.015625)"/>
       <path id="LiberationSans-Bold-65" d="M 1831 -63 
Q 1466 -63 1173 45 
Q 881 153 675 373 
Q 469 594 359 926 
Q 250 1259 250 1706 
Q 250 2191 379 2522 
Q 509 2853 729 3058 
Q 950 3263 1237 3353 
Q 1525 3444 1844 3444 
Q 2244 3444 2526 3305 
Q 2809 3166 2990 2916 
Q 3172 2666 3256 2317 
Q 3341 1969 3341 1547 
L 3341 1522 
L 1172 1522 
Q 1172 1309 1209 1126 
Q 1247 944 1331 811 
Q 1416 678 1550 601 
Q 1684 525 1875 525 
Q 2106 525 2253 623 
Q 2400 722 2463 928 
L 3291 856 
Q 3234 713 3132 550 
Q 3031 388 2862 252 
Q 2694 116 2442 26 
Q 2191 -63 1831 -63 
z
M 1831 2891 
Q 1697 2891 1580 2845 
Q 1463 2800 1377 2701 
Q 1291 2603 1237 2447 
Q 1184 2291 1178 2072 
L 2491 2072 
Q 2466 2481 2294 2686 
Q 2122 2891 1831 2891 
z
" transform="scale(0.015625)"/>
       <path id="LiberationSans-Bold-70" d="M 3647 1706 
Q 3647 1322 3570 997 
Q 3494 672 3334 437 
Q 3175 203 2929 70 
Q 2684 -63 2350 -63 
Q 2200 -63 2051 -31 
Q 1903 0 1768 70 
Q 1634 141 1520 255 
Q 1406 369 1325 538 
L 1306 538 
Q 1309 522 1312 459 
Q 1316 397 1319 314 
Q 1322 231 1323 139 
Q 1325 47 1325 -31 
L 1325 -1328 
L 447 -1328 
L 447 2603 
Q 447 2863 439 3066 
Q 431 3269 422 3381 
L 1275 3381 
Q 1281 3359 1289 3296 
Q 1297 3234 1301 3153 
Q 1306 3072 1309 2984 
Q 1313 2897 1313 2831 
L 1325 2831 
Q 1484 3166 1762 3309 
Q 2041 3453 2406 3453 
Q 2728 3453 2962 3322 
Q 3197 3191 3348 2959 
Q 3500 2728 3573 2408 
Q 3647 2088 3647 1706 
z
M 2731 1706 
Q 2731 2284 2556 2564 
Q 2381 2844 2034 2844 
Q 1903 2844 1773 2789 
Q 1644 2734 1542 2601 
Q 1441 2469 1377 2245 
Q 1313 2022 1313 1681 
Q 1313 1350 1375 1129 
Q 1438 909 1539 778 
Q 1641 647 1769 592 
Q 1897 538 2028 538 
Q 2197 538 2328 605 
Q 2459 672 2548 814 
Q 2638 956 2684 1178 
Q 2731 1400 2731 1706 
z
" transform="scale(0.015625)"/>
       <path id="LiberationSans-Bold-73" d="M 3297 988 
Q 3297 744 3195 550 
Q 3094 356 2900 220 
Q 2706 84 2425 10 
Q 2144 -63 1784 -63 
Q 1463 -63 1203 -16 
Q 944 31 748 139 
Q 553 247 422 419 
Q 291 591 225 844 
L 997 959 
Q 1034 819 1100 731 
Q 1166 644 1262 597 
Q 1359 550 1489 534 
Q 1619 519 1784 519 
Q 1934 519 2064 536 
Q 2194 553 2289 595 
Q 2384 638 2437 714 
Q 2491 791 2491 906 
Q 2491 1038 2414 1114 
Q 2338 1191 2205 1239 
Q 2072 1288 1892 1323 
Q 1713 1359 1509 1406 
Q 1297 1453 1090 1518 
Q 884 1584 721 1696 
Q 559 1809 459 1982 
Q 359 2156 359 2422 
Q 359 2663 453 2852 
Q 547 3041 728 3173 
Q 909 3306 1176 3376 
Q 1444 3447 1791 3447 
Q 2066 3447 2303 3395 
Q 2541 3344 2728 3233 
Q 2916 3122 3042 2950 
Q 3169 2778 3219 2534 
L 2441 2453 
Q 2419 2575 2362 2654 
Q 2306 2734 2223 2781 
Q 2141 2828 2031 2845 
Q 1922 2863 1791 2863 
Q 1478 2863 1322 2783 
Q 1166 2703 1166 2516 
Q 1166 2400 1230 2331 
Q 1294 2263 1411 2217 
Q 1528 2172 1689 2139 
Q 1850 2106 2041 2059 
Q 2275 2009 2501 1942 
Q 2728 1875 2904 1758 
Q 3081 1641 3189 1456 
Q 3297 1272 3297 988 
z
" transform="scale(0.015625)"/>
      </defs>
      <use xlink:href="#LiberationSans-Bold-54"/>
      <use xlink:href="#LiberationSans-Bold-72" transform="translate(55.583984 0)"/>
      <use xlink:href="#LiberationSans-Bold-61" transform="translate(94.5 0)"/>
      <use xlink:href="#LiberationSans-Bold-69" transform="translate(150.115234 0)"/>
      <use xlink:href="#LiberationSans-Bold-6e" transform="translate(177.898438 0)"/>
      <use xlink:href="#LiberationSans-Bold-69" transform="translate(238.982422 0)"/>
      <use xlink:href="#LiberationSans-Bold-6e" transform="translate(266.765625 0)"/>
      <use xlink:href="#LiberationSans-Bold-67" transform="translate(327.849609 0)"/>
      <use xlink:href="#LiberationSans-Bold-20" transform="translate(388.933594 0)"/>
      <use xlink:href="#LiberationSans-Bold-53" transform="translate(416.716797 0)"/>
      <use xlink:href="#LiberationSans-Bold-74" transform="translate(483.416016 0)"/>
      <use xlink:href="#LiberationSans-Bold-65" transform="translate(516.716797 0)"/>
      <use xlink:href="#LiberationSans-Bold-70" transform="translate(572.332031 0)"/>
      <use xlink:href="#LiberationSans-Bold-73" transform="translate(633.416016 0)"/>
     </g>
    </g>
   </g>
   <g id="matplotlib.axis_2">
    <g id="ytick_1">
     <g id="line2d_15">
      <path d="M 45.93 376.79 
L 709.2 376.79 
" clip-path="url(#p16c501282a)" style="fill: none; stroke-dasharray: 2.96,1.28; stroke-dashoffset: 0; stroke: #808080; stroke-opacity: 0.7; stroke-width: 0.8"/>
     </g>
     <g id="line2d_16"/>
     <g id="text_9">
      <!-- 0 -->
      <g style="fill: #262626" transform="translate(36.869062 380.413438) scale(0.1 -0.1)">
       <use xlink:href="#LiberationSans-30"/>
      </g>
     </g>
    </g>
    <g id="ytick_2">
     <g id="line2d_17">
      <path d="M 45.93 336.207722 
L 709.2 336.207722 
" clip-path="url(#p16c501282a)" style="fill: none; stroke-dasharray: 2.96,1.28; stroke-dashoffset: 0; stroke: #808080; stroke-opacity: 0.7; stroke-width: 0.8"/>
     </g>
     <g id="line2d_18"/>
     <g id="text_10">
      <!-- 50 -->
      <g style="fill: #262626" transform="translate(31.308125 339.831159) scale(0.1 -0.1)">
       <use xlink:href="#LiberationSans-35"/>
       <use xlink:href="#LiberationSans-30" transform="translate(55.615234 0)"/>
      </g>
     </g>
    </g>
    <g id="ytick_3">
     <g id="line2d_19">
      <path d="M 45.93 295.625443 
L 709.2 295.625443 
" clip-path="url(#p16c501282a)" style="fill: none; stroke-dasharray: 2.96,1.28; stroke-dashoffset: 0; stroke: #808080; stroke-opacity: 0.7; stroke-width: 0.8"/>
     </g>
     <g id="line2d_20"/>
     <g id="text_11">
      <!-- 100 -->
      <g style="fill: #262626" transform="translate(25.747187 299.248881) scale(0.1 -0.1)">
       <use xlink:href="#LiberationSans-31"/>
       <use xlink:href="#LiberationSans-30" transform="translate(55.615234 0)"/>
       <use xlink:href="#LiberationSans-30" transform="translate(111.230469 0)"/>
      </g>
     </g>
    </g>
    <g id="ytick_4">
     <g id="line2d_21">
      <path d="M 45.93 255.043165 
L 709.2 255.043165 
" clip-path="url(#p16c501282a)" style="fill: none; stroke-dasharray: 2.96,1.28; stroke-dashoffset: 0; stroke: #808080; stroke-opacity: 0.7; stroke-width: 0.8"/>
     </g>
     <g id="line2d_22"/>
     <g id="text_12">
      <!-- 150 -->
      <g style="fill: #262626" transform="translate(25.747187 258.666602) scale(0.1 -0.1)">
       <use xlink:href="#LiberationSans-31"/>
       <use xlink:href="#LiberationSans-35" transform="translate(55.615234 0)"/>
       <use xlink:href="#LiberationSans-30" transform="translate(111.230469 0)"/>
      </g>
     </g>
    </g>
    <g id="ytick_5">
     <g id="line2d_23">
      <path d="M 45.93 214.460886 
L 709.2 214.460886 
" clip-path="url(#p16c501282a)" style="fill: none; stroke-dasharray: 2.96,1.28; stroke-dashoffset: 0; stroke: #808080; stroke-opacity: 0.7; stroke-width: 0.8"/>
     </g>
     <g id="line2d_24"/>
     <g id="text_13">
      <!-- 200 -->
      <g style="fill: #262626" transform="translate(25.747187 218.084324) scale(0.1 -0.1)">
       <use xlink:href="#LiberationSans-32"/>
       <use xlink:href="#LiberationSans-30" transform="translate(55.615234 0)"/>
       <use xlink:href="#LiberationSans-30" transform="translate(111.230469 0)"/>
      </g>
     </g>
    </g>
    <g id="ytick_6">
     <g id="line2d_25">
      <path d="M 45.93 173.878608 
L 709.2 173.878608 
" clip-path="url(#p16c501282a)" style="fill: none; stroke-dasharray: 2.96,1.28; stroke-dashoffset: 0; stroke: #808080; stroke-opacity: 0.7; stroke-width: 0.8"/>
     </g>
     <g id="line2d_26"/>
     <g id="text_14">
      <!-- 250 -->
      <g style="fill: #262626" transform="translate(25.747187 177.502045) scale(0.1 -0.1)">
       <use xlink:href="#LiberationSans-32"/>
       <use xlink:href="#LiberationSans-35" transform="translate(55.615234 0)"/>
       <use xlink:href="#LiberationSans-30" transform="translate(111.230469 0)"/>
      </g>
     </g>
    </g>
    <g id="ytick_7">
     <g id="line2d_27">
      <path d="M 45.93 133.296329 
L 709.2 133.296329 
" clip-path="url(#p16c501282a)" style="fill: none; stroke-dasharray: 2.96,1.28; stroke-dashoffset: 0; stroke: #808080; stroke-opacity: 0.7; stroke-width: 0.8"/>
     </g>
     <g id="line2d_28"/>
     <g id="text_15">
      <!-- 300 -->
      <g style="fill: #262626" transform="translate(25.747187 136.919767) scale(0.1 -0.1)">
       <use xlink:href="#LiberationSans-33"/>
       <use xlink:href="#LiberationSans-30" transform="translate(55.615234 0)"/>
       <use xlink:href="#LiberationSans-30" transform="translate(111.230469 0)"/>
      </g>
     </g>
    </g>
    <g id="ytick_8">
     <g id="line2d_29">
      <path d="M 45.93 92.714051 
L 709.2 92.714051 
" clip-path="url(#p16c501282a)" style="fill: none; stroke-dasharray: 2.96,1.28; stroke-dashoffset: 0; stroke: #808080; stroke-opacity: 0.7; stroke-width: 0.8"/>
     </g>
     <g id="line2d_30"/>
     <g id="text_16">
      <!-- 350 -->
      <g style="fill: #262626" transform="translate(25.747187 96.337488) scale(0.1 -0.1)">
       <use xlink:href="#LiberationSans-33"/>
       <use xlink:href="#LiberationSans-35" transform="translate(55.615234 0)"/>
       <use xlink:href="#LiberationSans-30" transform="translate(111.230469 0)"/>
      </g>
     </g>
    </g>
    <g id="ytick_9">
     <g id="line2d_31">
      <path d="M 45.93 52.131772 
L 709.2 52.131772 
" clip-path="url(#p16c501282a)" style="fill: none; stroke-dasharray: 2.96,1.28; stroke-dashoffset: 0; stroke: #808080; stroke-opacity: 0.7; stroke-width: 0.8"/>
     </g>
     <g id="line2d_32"/>
     <g id="text_17">
      <!-- 400 -->
      <g style="fill: #262626" transform="translate(25.747187 55.75521) scale(0.1 -0.1)">
       <defs>
        <path id="LiberationSans-34" d="M 2753 997 
L 2753 0 
L 2222 0 
L 2222 997 
L 147 997 
L 147 1434 
L 2163 4403 
L 2753 4403 
L 2753 1441 
L 3372 1441 
L 3372 997 
L 2753 997 
z
M 2222 3769 
Q 2216 3753 2191 3708 
Q 2166 3663 2134 3606 
Q 2103 3550 2070 3492 
Q 2038 3434 2013 3397 
L 884 1734 
Q 869 1709 839 1668 
Q 809 1628 778 1586 
Q 747 1544 715 1503 
Q 684 1463 666 1441 
L 2222 1441 
L 2222 3769 
z
" transform="scale(0.015625)"/>
       </defs>
       <use xlink:href="#LiberationSans-34"/>
       <use xlink:href="#LiberationSans-30" transform="translate(55.615234 0)"/>
       <use xlink:href="#LiberationSans-30" transform="translate(111.230469 0)"/>
      </g>
     </g>
    </g>
    <g id="text_18">
     <!-- Loss Value -->
     <g style="fill: #262626" transform="translate(19.257187 247.83625) rotate(-90) scale(0.12 -0.12)">
      <defs>
       <path id="LiberationSans-Bold-4c" d="M 428 0 
L 428 4403 
L 1350 4403 
L 1350 713 
L 3713 713 
L 3713 0 
L 428 0 
z
" transform="scale(0.015625)"/>
       <path id="LiberationSans-Bold-6f" d="M 3659 1694 
Q 3659 1306 3551 984 
Q 3444 663 3228 430 
Q 3013 197 2691 67 
Q 2369 -63 1941 -63 
Q 1528 -63 1212 65 
Q 897 194 683 425 
Q 469 656 359 979 
Q 250 1303 250 1694 
Q 250 2072 354 2392 
Q 459 2713 671 2947 
Q 884 3181 1206 3312 
Q 1528 3444 1959 3444 
Q 2416 3444 2737 3312 
Q 3059 3181 3264 2948 
Q 3469 2716 3564 2395 
Q 3659 2075 3659 1694 
z
M 2741 1694 
Q 2741 2297 2544 2569 
Q 2347 2841 1972 2841 
Q 1584 2841 1378 2566 
Q 1172 2291 1172 1694 
Q 1172 1391 1226 1172 
Q 1281 953 1381 812 
Q 1481 672 1622 605 
Q 1763 538 1931 538 
Q 2125 538 2276 605 
Q 2428 672 2531 812 
Q 2634 953 2687 1172 
Q 2741 1391 2741 1694 
z
" transform="scale(0.015625)"/>
       <path id="LiberationSans-Bold-56" d="M 2606 0 
L 1672 0 
L 44 4403 
L 1006 4403 
L 1913 1575 
Q 1956 1434 1997 1287 
Q 2038 1141 2072 1019 
Q 2109 875 2144 744 
Q 2175 872 2209 1013 
Q 2241 1131 2283 1279 
Q 2325 1428 2369 1575 
L 3272 4403 
L 4225 4403 
L 2606 0 
z
" transform="scale(0.015625)"/>
       <path id="LiberationSans-Bold-6c" d="M 447 0 
L 447 4638 
L 1325 4638 
L 1325 0 
L 447 0 
z
" transform="scale(0.015625)"/>
       <path id="LiberationSans-Bold-75" d="M 1275 3381 
L 1275 1484 
Q 1275 1288 1306 1123 
Q 1338 959 1409 842 
Q 1481 725 1595 659 
Q 1709 594 1875 594 
Q 2034 594 2164 664 
Q 2294 734 2387 864 
Q 2481 994 2532 1173 
Q 2584 1353 2584 1569 
L 2584 3381 
L 3463 3381 
L 3463 756 
Q 3463 650 3464 533 
Q 3466 416 3470 311 
Q 3475 206 3479 123 
Q 3484 41 3488 0 
L 2650 0 
Q 2647 38 2639 120 
Q 2631 203 2626 303 
Q 2622 403 2617 503 
Q 2613 603 2613 672 
L 2597 672 
Q 2422 288 2151 112 
Q 1881 -63 1509 -63 
Q 1206 -63 993 37 
Q 781 138 648 311 
Q 516 484 456 721 
Q 397 959 397 1234 
L 397 3381 
L 1275 3381 
z
" transform="scale(0.015625)"/>
      </defs>
      <use xlink:href="#LiberationSans-Bold-4c"/>
      <use xlink:href="#LiberationSans-Bold-6f" transform="translate(61.083984 0)"/>
      <use xlink:href="#LiberationSans-Bold-73" transform="translate(122.167969 0)"/>
      <use xlink:href="#LiberationSans-Bold-73" transform="translate(177.783203 0)"/>
      <use xlink:href="#LiberationSans-Bold-20" transform="translate(233.398438 0)"/>
      <use xlink:href="#LiberationSans-Bold-56" transform="translate(261.181641 0)"/>
      <use xlink:href="#LiberationSans-Bold-61" transform="translate(322.380859 0)"/>
      <use xlink:href="#LiberationSans-Bold-6c" transform="translate(377.996094 0)"/>
      <use xlink:href="#LiberationSans-Bold-75" transform="translate(405.779297 0)"/>
      <use xlink:href="#LiberationSans-Bold-65" transform="translate(466.863281 0)"/>
     </g>
    </g>
   </g>
   <g id="line2d_33">
    <path d="M 76.078636 293.897253 
L 77.888158 298.539415 
L 80.702969 301.293599 
L 81.909316 301.765977 
L 83.51778 302.689073 
L 84.322011 303.505412 
L 84.925185 304.338069 
L 85.528359 305.582331 
L 86.131533 307.482149 
L 87.136822 311.792418 
L 88.544228 317.800399 
L 89.147402 319.614 
L 89.951633 321.154561 
L 90.956923 322.519228 
L 91.560097 323.079253 
L 93.16856 324.07457 
L 94.17385 324.87415 
L 94.978082 325.77526 
L 96.184429 327.630551 
L 97.189719 329.547735 
L 98.396066 331.785525 
L 99.803472 333.637259 
L 100.406646 334.151999 
L 102.819341 335.78504 
L 103.623573 336.658978 
L 104.226746 337.701698 
L 105.030978 339.772684 
L 106.639441 344.200157 
L 107.443673 345.716537 
L 108.247905 346.698367 
L 109.253195 347.862395 
L 111.866948 351.01401 
L 112.872237 352.0218 
L 114.279643 353.075273 
L 115.083874 353.64178 
L 117.898685 356.100902 
L 121.517728 358.184202 
L 123.729365 358.782277 
L 125.941003 359.583838 
L 128.755814 360.798566 
L 129.761103 361.243692 
L 131.570625 361.738565 
L 132.97803 362.114583 
L 137.80342 363.848996 
L 141.824579 364.689191 
L 144.237274 365.263756 
L 146.247853 365.81813 
L 148.660549 366.488343 
L 151.676417 367.555079 
L 154.089113 368.021852 
L 156.501808 368.508313 
L 159.115561 368.848225 
L 160.724024 369.132241 
L 163.538835 369.935927 
L 165.95153 370.662625 
L 168.364225 371.418587 
L 169.972689 372.012727 
L 171.78221 372.256056 
L 174.194905 372.655837 
L 177.411832 373.331518 
L 180.427701 373.629497 
L 182.036165 373.898902 
L 185.253091 374.431084 
L 187.866845 374.547685 
L 190.480598 374.737897 
L 192.893293 374.960886 
L 201.9409 375.492504 
L 206.163116 375.871133 
L 210.385333 376.095033 
L 213.602259 376.200074 
L 223.856214 376.477944 
L 226.671025 376.574302 
L 245.369412 376.694947 
L 411.242203 376.789854 
L 679.051364 376.789998 
L 679.051364 376.789998 
" clip-path="url(#p16c501282a)" style="fill: none; stroke: #2e86c1; stroke-opacity: 0.9; stroke-width: 2; stroke-linecap: round"/>
   </g>
   <g id="line2d_34">
    <path d="M 76.078636 288.320633 
L 91.157981 288.320633 
L 91.359039 164.138861 
L 91.761155 164.138861 
L 91.962213 56.19 
L 92.163271 216.084177 
L 92.565386 216.084177 
L 92.766444 257.478101 
L 93.369618 257.478101 
L 93.771734 275.334304 
L 94.575966 275.334304 
L 94.777024 264.782911 
L 95.983371 264.782911 
L 96.184429 292.378861 
L 96.988661 292.378861 
L 97.189719 275.334304 
L 98.195008 275.334304 
L 98.396066 282.639114 
L 98.597124 294.813797 
L 101.814051 294.813797 
L 102.015109 298.872025 
L 102.618283 298.872025 
L 102.819341 300.495316 
L 103.623573 300.495316 
L 103.82463 303.741899 
L 105.433094 303.741899 
L 105.634152 311.046709 
L 107.443673 311.046709 
L 107.644731 308.611772 
L 107.845789 308.611772 
L 108.046847 309.423418 
L 108.851079 309.423418 
L 109.052137 310.235063 
L 109.454252 310.235063 
L 109.65531 324.033038 
L 110.258484 324.033038 
L 110.459542 322.409747 
L 111.263774 322.409747 
L 111.464832 324.033038 
L 111.866948 324.033038 
L 112.068006 323.221392 
L 112.470121 325.656329 
L 112.671179 325.656329 
L 112.872237 328.091266 
L 115.083874 328.091266 
L 115.284932 325.656329 
L 116.49128 325.656329 
L 116.692338 331.337848 
L 116.893396 331.337848 
L 117.295512 343.512532 
L 119.708207 343.512532 
L 119.909265 345.947468 
L 125.136771 345.947468 
L 125.337829 346.759114 
L 128.15264 346.759114 
L 128.353698 345.947468 
L 128.554756 345.947468 
L 128.755814 346.759114 
L 128.956872 345.135823 
L 129.761103 345.135823 
L 129.962161 348.382405 
L 134.184378 348.382405 
L 134.385436 344.324177 
L 134.787551 344.324177 
L 134.988609 345.135823 
L 135.390725 345.135823 
L 135.591783 350.005696 
L 136.999189 350.005696 
L 137.200247 346.759114 
L 140.015058 346.759114 
L 140.216116 345.135823 
L 140.618231 345.135823 
L 140.819289 351.628987 
L 147.454201 351.628987 
L 147.655259 352.440633 
L 148.258433 352.440633 
L 148.459491 353.252278 
L 150.067954 353.252278 
L 150.269012 352.440633 
L 151.073244 352.440633 
L 151.274302 340.265949 
L 153.888055 340.265949 
L 154.089113 335.396076 
L 156.30075 335.396076 
L 156.501808 336.207722 
L 160.925082 336.207722 
L 161.12614 341.889241 
L 161.327198 341.889241 
L 161.528256 343.512532 
L 161.729314 343.512532 
L 161.930372 344.324177 
L 164.142009 344.324177 
L 164.343067 347.570759 
L 164.946241 347.570759 
L 165.147299 335.396076 
L 165.348357 339.454304 
L 165.549415 339.454304 
L 165.750472 338.642658 
L 166.755762 338.642658 
L 166.95682 343.512532 
L 168.364225 343.512532 
L 168.565283 353.252278 
L 168.766341 353.252278 
L 168.967399 355.687215 
L 169.168457 353.252278 
L 169.771631 353.252278 
L 169.972689 356.498861 
L 172.385384 356.498861 
L 172.586442 358.933797 
L 176.205485 358.933797 
L 176.406543 361.368734 
L 180.427701 361.368734 
L 180.628759 362.18038 
L 181.634049 362.18038 
L 181.835107 363.803671 
L 182.237223 363.803671 
L 182.43828 364.615316 
L 184.649918 364.615316 
L 184.850976 365.426962 
L 190.882713 365.426962 
L 191.083771 363.803671 
L 191.284829 365.426962 
L 191.485887 365.426962 
L 191.686945 366.238608 
L 196.914451 366.238608 
L 197.115509 367.861899 
L 198.120799 367.861899 
L 198.321857 362.992025 
L 198.522915 368.673544 
L 200.93561 368.673544 
L 201.136668 367.861899 
L 202.745131 367.861899 
L 202.946189 368.673544 
L 209.581101 368.673544 
L 209.782159 369.48519 
L 209.983217 369.48519 
L 210.184275 368.673544 
L 210.787448 368.673544 
L 210.988506 370.296835 
L 216.618128 370.296835 
L 216.819186 371.108481 
L 223.051982 371.108481 
L 223.25304 370.296835 
L 223.454098 370.296835 
L 223.655156 371.108481 
L 227.475256 371.108481 
L 227.676314 371.920127 
L 232.903821 371.920127 
L 233.104878 372.731772 
L 250.194802 372.731772 
L 250.39586 371.920127 
L 250.596918 371.920127 
L 250.797976 372.731772 
L 271.506943 372.731772 
L 271.708001 374.355063 
L 305.485733 374.355063 
L 305.686791 375.166709 
L 306.69208 375.166709 
L 306.893138 374.355063 
L 309.707949 374.355063 
L 309.909007 375.166709 
L 340.469812 375.166709 
L 340.67087 375.978354 
L 367.411575 375.978354 
L 367.612633 375.166709 
L 452.056962 375.166709 
L 452.25802 376.79 
L 679.051364 376.79 
L 679.051364 376.79 
" clip-path="url(#p16c501282a)" style="fill: none; stroke-dasharray: 7.4,3.2; stroke-dashoffset: 0; stroke: #e74c3c; stroke-opacity: 0.9; stroke-width: 2"/>
   </g>
   <g id="patch_3">
    <path d="M 45.93 392.82 
L 45.93 40.16 
" style="fill: none; stroke: #ffffff; stroke-width: 1.5; stroke-linejoin: miter; stroke-linecap: square"/>
   </g>
   <g id="patch_4">
    <path d="M 709.2 392.82 
L 709.2 40.16 
" style="fill: none; stroke: #ffffff; stroke-width: 1.5; stroke-linejoin: miter; stroke-linecap: square"/>
   </g>
   <g id="patch_5">
    <path d="M 45.93 392.82 
L 709.2 392.82 
" style="fill: none; stroke: #ffffff; stroke-width: 1.5; stroke-linejoin: miter; stroke-linecap: square"/>
   </g>
   <g id="patch_6">
    <path d="M 45.93 40.16 
L 709.2 40.16 
" style="fill: none; stroke: #ffffff; stroke-width: 1.5; stroke-linejoin: miter; stroke-linecap: square"/>
   </g>
   <g id="text_19">
    <!-- Training Progress - Soft vs Hard Gates -->
    <g style="fill: #262626" transform="translate(249.2025 20.16) scale(0.14 -0.14)">
     <defs>
      <path id="LiberationSans-Bold-50" d="M 4050 3009 
Q 4050 2725 3954 2461 
Q 3859 2197 3662 1994 
Q 3466 1791 3162 1670 
Q 2859 1550 2444 1550 
L 1350 1550 
L 1350 0 
L 428 0 
L 428 4403 
L 2406 4403 
Q 2828 4403 3137 4301 
Q 3447 4200 3650 4015 
Q 3853 3831 3951 3575 
Q 4050 3319 4050 3009 
z
M 3122 2994 
Q 3122 3334 2917 3511 
Q 2713 3688 2303 3688 
L 1350 3688 
L 1350 2259 
L 2328 2259 
Q 2534 2259 2682 2312 
Q 2831 2366 2929 2462 
Q 3028 2559 3075 2695 
Q 3122 2831 3122 2994 
z
" transform="scale(0.015625)"/>
      <path id="LiberationSans-Bold-2d" d="M 250 1278 
L 250 2041 
L 1875 2041 
L 1875 1278 
L 250 1278 
z
" transform="scale(0.015625)"/>
      <path id="LiberationSans-Bold-66" d="M 1478 2788 
L 1478 0 
L 603 0 
L 603 2788 
L 109 2788 
L 109 3381 
L 603 3381 
L 603 3734 
Q 603 3928 650 4092 
Q 697 4256 809 4378 
Q 922 4500 1112 4569 
Q 1303 4638 1588 4638 
Q 1738 4638 1883 4622 
Q 2028 4606 2144 4588 
L 2144 4022 
Q 2088 4034 2017 4042 
Q 1947 4050 1888 4050 
Q 1766 4050 1686 4025 
Q 1606 4000 1561 3950 
Q 1516 3900 1497 3823 
Q 1478 3747 1478 3647 
L 1478 3381 
L 2144 3381 
L 2144 2788 
L 1478 2788 
z
" transform="scale(0.015625)"/>
      <path id="LiberationSans-Bold-76" d="M 1766 709 
L 2613 3381 
L 3531 3381 
L 2284 0 
L 1234 0 
L 25 3381 
L 953 3381 
L 1766 709 
z
" transform="scale(0.015625)"/>
      <path id="LiberationSans-Bold-48" d="M 3269 0 
L 3269 1888 
L 1350 1888 
L 1350 0 
L 428 0 
L 428 4403 
L 1350 4403 
L 1350 2650 
L 3269 2650 
L 3269 4403 
L 4191 4403 
L 4191 0 
L 3269 0 
z
" transform="scale(0.015625)"/>
      <path id="LiberationSans-Bold-64" d="M 2638 0 
Q 2631 25 2623 89 
Q 2616 153 2608 234 
Q 2600 316 2595 400 
Q 2591 484 2591 550 
L 2578 550 
Q 2425 222 2151 79 
Q 1878 -63 1497 -63 
Q 1178 -63 945 68 
Q 713 200 561 434 
Q 409 669 336 989 
Q 263 1309 263 1688 
Q 263 2072 339 2394 
Q 416 2716 575 2948 
Q 734 3181 979 3312 
Q 1225 3444 1563 3444 
Q 1728 3444 1881 3409 
Q 2034 3375 2165 3303 
Q 2297 3231 2403 3118 
Q 2509 3006 2584 2847 
L 2591 2847 
Q 2591 2878 2589 2939 
Q 2588 3000 2588 3078 
Q 2588 3156 2586 3240 
Q 2584 3325 2584 3403 
L 2584 4638 
L 3463 4638 
L 3463 738 
Q 3463 491 3472 298 
Q 3481 106 3488 0 
L 2638 0 
z
M 2597 1709 
Q 2597 2044 2534 2264 
Q 2472 2484 2370 2614 
Q 2269 2744 2139 2795 
Q 2009 2847 1875 2847 
Q 1706 2847 1576 2781 
Q 1447 2716 1358 2575 
Q 1269 2434 1223 2215 
Q 1178 1997 1178 1688 
Q 1178 538 1869 538 
Q 2000 538 2131 594 
Q 2263 650 2366 784 
Q 2469 919 2533 1145 
Q 2597 1372 2597 1709 
z
" transform="scale(0.015625)"/>
      <path id="LiberationSans-Bold-47" d="M 2519 659 
Q 2719 659 2903 690 
Q 3088 722 3245 773 
Q 3403 825 3529 892 
Q 3656 959 3738 1031 
L 3738 1641 
L 2663 1641 
L 2663 2322 
L 4581 2322 
L 4581 703 
Q 4431 550 4218 411 
Q 4006 272 3740 167 
Q 3475 63 3161 0 
Q 2847 -63 2494 -63 
Q 1909 -63 1487 107 
Q 1066 278 794 583 
Q 522 888 392 1306 
Q 263 1725 263 2222 
Q 263 2738 400 3153 
Q 538 3569 817 3861 
Q 1097 4153 1520 4311 
Q 1944 4469 2516 4469 
Q 2931 4469 3254 4387 
Q 3578 4306 3820 4156 
Q 4063 4006 4227 3795 
Q 4391 3584 4488 3322 
L 3638 3066 
Q 3581 3203 3487 3326 
Q 3394 3450 3255 3542 
Q 3116 3634 2933 3689 
Q 2750 3744 2516 3744 
Q 2172 3744 1922 3636 
Q 1672 3528 1509 3328 
Q 1347 3128 1269 2848 
Q 1191 2569 1191 2222 
Q 1191 1878 1270 1590 
Q 1350 1303 1514 1097 
Q 1678 891 1928 775 
Q 2178 659 2519 659 
z
" transform="scale(0.015625)"/>
     </defs>
     <use xlink:href="#LiberationSans-Bold-54"/>
     <use xlink:href="#LiberationSans-Bold-72" transform="translate(55.583984 0)"/>
     <use xlink:href="#LiberationSans-Bold-61" transform="translate(94.5 0)"/>
     <use xlink:href="#LiberationSans-Bold-69" transform="translate(150.115234 0)"/>
     <use xlink:href="#LiberationSans-Bold-6e" transform="translate(177.898438 0)"/>
     <use xlink:href="#LiberationSans-Bold-69" transform="translate(238.982422 0)"/>
     <use xlink:href="#LiberationSans-Bold-6e" transform="translate(266.765625 0)"/>
     <use xlink:href="#LiberationSans-Bold-67" transform="translate(327.849609 0)"/>
     <use xlink:href="#LiberationSans-Bold-20" transform="translate(388.933594 0)"/>
     <use xlink:href="#LiberationSans-Bold-50" transform="translate(416.716797 0)"/>
     <use xlink:href="#LiberationSans-Bold-72" transform="translate(483.416016 0)"/>
     <use xlink:href="#LiberationSans-Bold-6f" transform="translate(522.332031 0)"/>
     <use xlink:href="#LiberationSans-Bold-67" transform="translate(583.416016 0)"/>
     <use xlink:href="#LiberationSans-Bold-72" transform="translate(644.5 0)"/>
     <use xlink:href="#LiberationSans-Bold-65" transform="translate(683.416016 0)"/>
     <use xlink:href="#LiberationSans-Bold-73" transform="translate(739.03125 0)"/>
     <use xlink:href="#LiberationSans-Bold-73" transform="translate(794.646484 0)"/>
     <use xlink:href="#LiberationSans-Bold-20" transform="translate(850.261719 0)"/>
     <use xlink:href="#LiberationSans-Bold-2d" transform="translate(878.044922 0)"/>
     <use xlink:href="#LiberationSans-Bold-20" transform="translate(911.345703 0)"/>
     <use xlink:href="#LiberationSans-Bold-53" transform="translate(939.128906 0)"/>
     <use xlink:href="#LiberationSans-Bold-6f" transform="translate(1005.828125 0)"/>
     <use xlink:href="#LiberationSans-Bold-66" transform="translate(1066.912109 0)"/>
     <use xlink:href="#LiberationSans-Bold-74" transform="translate(1100.212891 0)"/>
     <use xlink:href="#LiberationSans-Bold-20" transform="translate(1133.513672 0)"/>
     <use xlink:href="#LiberationSans-Bold-76" transform="translate(1161.296875 0)"/>
     <use xlink:href="#LiberationSans-Bold-73" transform="translate(1216.912109 0)"/>
     <use xlink:href="#LiberationSans-Bold-20" transform="translate(1272.527344 0)"/>
     <use xlink:href="#LiberationSans-Bold-48" transform="translate(1300.310547 0)"/>
     <use xlink:href="#LiberationSans-Bold-61" transform="translate(1372.527344 0)"/>
     <use xlink:href="#LiberationSans-Bold-72" transform="translate(1428.142578 0)"/>
     <use xlink:href="#LiberationSans-Bold-64" transform="translate(1467.058594 0)"/>
     <use xlink:href="#LiberationSans-Bold-20" transform="translate(1528.142578 0)"/>
     <use xlink:href="#LiberationSans-Bold-47" transform="translate(1555.925781 0)"/>
     <use xlink:href="#LiberationSans-Bold-61" transform="translate(1633.708984 0)"/>
     <use xlink:href="#LiberationSans-Bold-74" transform="translate(1689.324219 0)"/>
     <use xlink:href="#LiberationSans-Bold-65" transform="translate(1722.625 0)"/>
     <use xlink:href="#LiberationSans-Bold-73" transform="translate(1778.240234 0)"/>
    </g>
   </g>
   <g id="legend_1">
    <g id="patch_7">
     <path d="M 597.170313 78.80375 
L 704.2 78.80375 
Q 706.2 78.80375 706.2 76.80375 
L 706.2 49.16 
Q 706.2 47.16 704.2 47.16 
L 597.170313 47.16 
Q 595.170313 47.16 595.170313 49.16 
L 595.170313 76.80375 
Q 595.170313 78.80375 597.170313 78.80375 
z
" style="fill: #464649; opacity: 0.5; stroke: #464649; stroke-linejoin: miter"/>
    </g>
    <g id="patch_8">
     <path d="M 595.170313 76.80375 
L 702.2 76.80375 
Q 704.2 76.80375 704.2 74.80375 
L 704.2 47.16 
Q 704.2 45.16 702.2 45.16 
L 595.170313 45.16 
Q 593.170313 45.16 593.170313 47.16 
L 593.170313 74.80375 
Q 593.170313 76.80375 595.170313 76.80375 
z
" style="fill: #eaeaf2; stroke: #cccccc; stroke-linejoin: miter"/>
    </g>
    <g id="line2d_35">
     <path d="M 597.170313 52.906875 
L 607.170313 52.906875 
L 617.170313 52.906875 
" style="fill: none; stroke: #2e86c1; stroke-opacity: 0.9; stroke-width: 2; stroke-linecap: round"/>
    </g>
    <g id="text_20">
     <!-- Soft Gates Loss -->
     <g style="fill: #262626" transform="translate(625.170313 56.406875) scale(0.1 -0.1)">
      <defs>
       <path id="LiberationSans-53" d="M 3975 1216 
Q 3975 938 3867 703 
Q 3759 469 3534 298 
Q 3309 128 2967 32 
Q 2625 -63 2156 -63 
Q 1334 -63 875 225 
Q 416 513 291 1056 
L 869 1172 
Q 913 1000 1003 859 
Q 1094 719 1248 617 
Q 1403 516 1631 459 
Q 1859 403 2178 403 
Q 2444 403 2666 448 
Q 2888 494 3047 587 
Q 3206 681 3295 829 
Q 3384 978 3384 1184 
Q 3384 1400 3286 1534 
Q 3188 1669 3009 1756 
Q 2831 1844 2584 1903 
Q 2338 1963 2038 2031 
Q 1853 2072 1667 2120 
Q 1481 2169 1311 2236 
Q 1141 2303 991 2393 
Q 841 2484 731 2611 
Q 622 2738 559 2905 
Q 497 3072 497 3291 
Q 497 3603 623 3826 
Q 750 4050 975 4194 
Q 1200 4338 1506 4403 
Q 1813 4469 2169 4469 
Q 2578 4469 2868 4405 
Q 3159 4341 3359 4212 
Q 3559 4084 3679 3895 
Q 3800 3706 3872 3456 
L 3284 3353 
Q 3241 3513 3158 3638 
Q 3075 3763 2940 3847 
Q 2806 3931 2614 3975 
Q 2422 4019 2163 4019 
Q 1856 4019 1648 3964 
Q 1441 3909 1314 3815 
Q 1188 3722 1133 3595 
Q 1078 3469 1078 3322 
Q 1078 3125 1176 2998 
Q 1275 2872 1444 2787 
Q 1613 2703 1834 2647 
Q 2056 2591 2306 2534 
Q 2509 2488 2711 2439 
Q 2913 2391 3097 2323 
Q 3281 2256 3442 2165 
Q 3603 2075 3722 1944 
Q 3841 1813 3908 1634 
Q 3975 1456 3975 1216 
z
" transform="scale(0.015625)"/>
       <path id="LiberationSans-6f" d="M 3291 1694 
Q 3291 806 2900 371 
Q 2509 -63 1766 -63 
Q 1413 -63 1134 43 
Q 856 150 664 369 
Q 472 588 370 917 
Q 269 1247 269 1694 
Q 269 3444 1784 3444 
Q 2178 3444 2464 3334 
Q 2750 3225 2933 3006 
Q 3116 2788 3203 2459 
Q 3291 2131 3291 1694 
z
M 2700 1694 
Q 2700 2088 2639 2344 
Q 2578 2600 2461 2753 
Q 2344 2906 2175 2967 
Q 2006 3028 1794 3028 
Q 1578 3028 1404 2964 
Q 1231 2900 1109 2745 
Q 988 2591 923 2334 
Q 859 2078 859 1694 
Q 859 1300 928 1042 
Q 997 784 1117 631 
Q 1238 478 1402 415 
Q 1566 353 1759 353 
Q 1975 353 2150 414 
Q 2325 475 2447 628 
Q 2569 781 2634 1040 
Q 2700 1300 2700 1694 
z
" transform="scale(0.015625)"/>
       <path id="LiberationSans-66" d="M 1128 2972 
L 1128 0 
L 566 0 
L 566 2972 
L 91 2972 
L 91 3381 
L 566 3381 
L 566 3763 
Q 566 3947 600 4105 
Q 634 4263 726 4380 
Q 819 4497 978 4564 
Q 1138 4631 1391 4631 
Q 1491 4631 1598 4622 
Q 1706 4613 1788 4594 
L 1788 4166 
Q 1734 4175 1664 4183 
Q 1594 4191 1538 4191 
Q 1413 4191 1333 4156 
Q 1253 4122 1208 4058 
Q 1163 3994 1145 3900 
Q 1128 3806 1128 3684 
L 1128 3381 
L 1788 3381 
L 1788 2972 
L 1128 2972 
z
" transform="scale(0.015625)"/>
       <path id="LiberationSans-74" d="M 1731 25 
Q 1603 -9 1470 -29 
Q 1338 -50 1163 -50 
Q 488 -50 488 716 
L 488 2972 
L 97 2972 
L 97 3381 
L 509 3381 
L 675 4138 
L 1050 4138 
L 1050 3381 
L 1675 3381 
L 1675 2972 
L 1050 2972 
L 1050 838 
Q 1050 594 1129 495 
Q 1209 397 1406 397 
Q 1488 397 1564 409 
Q 1641 422 1731 441 
L 1731 25 
z
" transform="scale(0.015625)"/>
       <path id="LiberationSans-20" transform="scale(0.015625)"/>
       <path id="LiberationSans-47" d="M 322 2222 
Q 322 2738 461 3153 
Q 600 3569 876 3861 
Q 1153 4153 1562 4311 
Q 1972 4469 2513 4469 
Q 2919 4469 3225 4397 
Q 3531 4325 3756 4190 
Q 3981 4056 4137 3864 
Q 4294 3672 4403 3431 
L 3834 3263 
Q 3753 3425 3639 3558 
Q 3525 3691 3362 3784 
Q 3200 3878 2986 3929 
Q 2772 3981 2497 3981 
Q 2097 3981 1801 3856 
Q 1506 3731 1312 3500 
Q 1119 3269 1023 2944 
Q 928 2619 928 2222 
Q 928 1825 1031 1495 
Q 1134 1166 1337 927 
Q 1541 688 1842 555 
Q 2144 422 2541 422 
Q 2800 422 3019 465 
Q 3238 509 3414 579 
Q 3591 650 3725 736 
Q 3859 822 3950 909 
L 3950 1703 
L 2634 1703 
L 2634 2203 
L 4500 2203 
L 4500 684 
Q 4353 534 4154 398 
Q 3956 263 3709 159 
Q 3463 56 3169 -3 
Q 2875 -63 2541 -63 
Q 1984 -63 1568 107 
Q 1153 278 876 583 
Q 600 888 461 1306 
Q 322 1725 322 2222 
z
" transform="scale(0.015625)"/>
       <path id="LiberationSans-61" d="M 1294 -63 
Q 784 -63 528 206 
Q 272 475 272 944 
Q 272 1278 398 1492 
Q 525 1706 729 1828 
Q 934 1950 1196 1997 
Q 1459 2044 1731 2050 
L 2491 2063 
L 2491 2247 
Q 2491 2456 2447 2603 
Q 2403 2750 2312 2840 
Q 2222 2931 2086 2973 
Q 1950 3016 1766 3016 
Q 1603 3016 1472 2992 
Q 1341 2969 1244 2908 
Q 1147 2847 1087 2742 
Q 1028 2638 1009 2478 
L 422 2531 
Q 453 2731 540 2898 
Q 628 3066 789 3187 
Q 950 3309 1192 3376 
Q 1434 3444 1778 3444 
Q 2416 3444 2737 3151 
Q 3059 2859 3059 2306 
L 3059 850 
Q 3059 600 3125 473 
Q 3191 347 3375 347 
Q 3422 347 3469 353 
Q 3516 359 3559 369 
L 3559 19 
Q 3453 -6 3348 -18 
Q 3244 -31 3125 -31 
Q 2966 -31 2852 11 
Q 2738 53 2666 139 
Q 2594 225 2556 351 
Q 2519 478 2509 647 
L 2491 647 
Q 2400 484 2292 353 
Q 2184 222 2040 130 
Q 1897 38 1714 -12 
Q 1531 -63 1294 -63 
z
M 1422 359 
Q 1691 359 1892 457 
Q 2094 556 2226 709 
Q 2359 863 2425 1044 
Q 2491 1225 2491 1391 
L 2491 1669 
L 1875 1656 
Q 1669 1653 1483 1626 
Q 1297 1600 1156 1522 
Q 1016 1444 933 1303 
Q 850 1163 850 934 
Q 850 659 998 509 
Q 1147 359 1422 359 
z
" transform="scale(0.015625)"/>
       <path id="LiberationSans-65" d="M 863 1572 
Q 863 1306 917 1082 
Q 972 859 1086 698 
Q 1200 538 1378 448 
Q 1556 359 1806 359 
Q 2172 359 2392 506 
Q 2613 653 2691 878 
L 3184 738 
Q 3131 597 3036 455 
Q 2941 313 2781 198 
Q 2622 84 2383 10 
Q 2144 -63 1806 -63 
Q 1056 -63 664 384 
Q 272 831 272 1713 
Q 272 2188 390 2517 
Q 509 2847 715 3053 
Q 922 3259 1197 3351 
Q 1472 3444 1784 3444 
Q 2209 3444 2495 3306 
Q 2781 3169 2954 2926 
Q 3128 2684 3201 2356 
Q 3275 2028 3275 1647 
L 3275 1572 
L 863 1572 
z
M 2694 2003 
Q 2647 2538 2422 2783 
Q 2197 3028 1775 3028 
Q 1634 3028 1479 2983 
Q 1325 2938 1194 2822 
Q 1063 2706 972 2507 
Q 881 2309 869 2003 
L 2694 2003 
z
" transform="scale(0.015625)"/>
       <path id="LiberationSans-73" d="M 2969 934 
Q 2969 697 2876 511 
Q 2784 325 2609 198 
Q 2434 72 2179 4 
Q 1925 -63 1597 -63 
Q 1303 -63 1067 -17 
Q 831 28 653 128 
Q 475 228 354 392 
Q 234 556 178 794 
L 675 891 
Q 747 619 972 492 
Q 1197 366 1597 366 
Q 1778 366 1929 391 
Q 2081 416 2190 477 
Q 2300 538 2361 639 
Q 2422 741 2422 891 
Q 2422 1044 2350 1142 
Q 2278 1241 2150 1306 
Q 2022 1372 1839 1420 
Q 1656 1469 1438 1528 
Q 1234 1581 1034 1647 
Q 834 1713 673 1820 
Q 513 1928 413 2087 
Q 313 2247 313 2488 
Q 313 2950 642 3192 
Q 972 3434 1603 3434 
Q 2163 3434 2492 3237 
Q 2822 3041 2909 2606 
L 2403 2544 
Q 2375 2675 2300 2764 
Q 2225 2853 2119 2908 
Q 2013 2963 1880 2986 
Q 1747 3009 1603 3009 
Q 1222 3009 1040 2893 
Q 859 2778 859 2544 
Q 859 2406 926 2317 
Q 994 2228 1114 2167 
Q 1234 2106 1403 2061 
Q 1572 2016 1775 1966 
Q 1909 1931 2050 1892 
Q 2191 1853 2323 1798 
Q 2456 1744 2573 1670 
Q 2691 1597 2778 1494 
Q 2866 1391 2917 1253 
Q 2969 1116 2969 934 
z
" transform="scale(0.015625)"/>
       <path id="LiberationSans-4c" d="M 525 0 
L 525 4403 
L 1122 4403 
L 1122 488 
L 3347 488 
L 3347 0 
L 525 0 
z
" transform="scale(0.015625)"/>
      </defs>
      <use xlink:href="#LiberationSans-53"/>
      <use xlink:href="#LiberationSans-6f" transform="translate(66.699219 0)"/>
      <use xlink:href="#LiberationSans-66" transform="translate(122.314453 0)"/>
      <use xlink:href="#LiberationSans-74" transform="translate(150.097656 0)"/>
      <use xlink:href="#LiberationSans-20" transform="translate(177.880859 0)"/>
      <use xlink:href="#LiberationSans-47" transform="translate(205.664062 0)"/>
      <use xlink:href="#LiberationSans-61" transform="translate(283.447266 0)"/>
      <use xlink:href="#LiberationSans-74" transform="translate(339.0625 0)"/>
      <use xlink:href="#LiberationSans-65" transform="translate(366.845703 0)"/>
      <use xlink:href="#LiberationSans-73" transform="translate(422.460938 0)"/>
      <use xlink:href="#LiberationSans-20" transform="translate(472.460938 0)"/>
      <use xlink:href="#LiberationSans-4c" transform="translate(500.244141 0)"/>
      <use xlink:href="#LiberationSans-6f" transform="translate(555.859375 0)"/>
      <use xlink:href="#LiberationSans-73" transform="translate(611.474609 0)"/>
      <use xlink:href="#LiberationSans-73" transform="translate(661.474609 0)"/>
     </g>
    </g>
    <g id="line2d_36">
     <path d="M 597.170313 67.22875 
L 607.170313 67.22875 
L 617.170313 67.22875 
" style="fill: none; stroke-dasharray: 7.4,3.2; stroke-dashoffset: 0; stroke: #e74c3c; stroke-opacity: 0.9; stroke-width: 2"/>
    </g>
    <g id="text_21">
     <!-- Hard Gates Loss -->
     <g style="fill: #262626" transform="translate(625.170313 70.72875) scale(0.1 -0.1)">
      <defs>
       <path id="LiberationSans-48" d="M 3503 0 
L 3503 2041 
L 1122 2041 
L 1122 0 
L 525 0 
L 525 4403 
L 1122 4403 
L 1122 2541 
L 3503 2541 
L 3503 4403 
L 4100 4403 
L 4100 0 
L 3503 0 
z
" transform="scale(0.015625)"/>
       <path id="LiberationSans-72" d="M 444 0 
L 444 2594 
Q 444 2700 442 2811 
Q 441 2922 437 3025 
Q 434 3128 431 3218 
Q 428 3309 425 3381 
L 956 3381 
Q 959 3309 964 3217 
Q 969 3125 973 3028 
Q 978 2931 979 2842 
Q 981 2753 981 2691 
L 994 2691 
Q 1053 2884 1120 3026 
Q 1188 3169 1278 3261 
Q 1369 3353 1494 3398 
Q 1619 3444 1797 3444 
Q 1866 3444 1928 3433 
Q 1991 3422 2025 3413 
L 2025 2897 
Q 1969 2913 1894 2920 
Q 1819 2928 1725 2928 
Q 1531 2928 1395 2840 
Q 1259 2753 1173 2598 
Q 1088 2444 1047 2230 
Q 1006 2016 1006 1763 
L 1006 0 
L 444 0 
z
" transform="scale(0.015625)"/>
       <path id="LiberationSans-64" d="M 2566 544 
Q 2409 219 2151 78 
Q 1894 -63 1513 -63 
Q 872 -63 570 368 
Q 269 800 269 1675 
Q 269 3444 1513 3444 
Q 1897 3444 2153 3303 
Q 2409 3163 2566 2856 
L 2572 2856 
Q 2572 2888 2570 2955 
Q 2569 3022 2567 3095 
Q 2566 3169 2566 3234 
Q 2566 3300 2566 3328 
L 2566 4638 
L 3128 4638 
L 3128 697 
Q 3128 575 3129 462 
Q 3131 350 3134 256 
Q 3138 163 3141 95 
Q 3144 28 3147 0 
L 2609 0 
Q 2603 31 2598 89 
Q 2594 147 2589 222 
Q 2584 297 2581 380 
Q 2578 463 2578 544 
L 2566 544 
z
M 859 1694 
Q 859 1344 903 1094 
Q 947 844 1044 683 
Q 1141 522 1291 447 
Q 1441 372 1656 372 
Q 1878 372 2048 444 
Q 2219 516 2333 677 
Q 2447 838 2506 1097 
Q 2566 1356 2566 1731 
Q 2566 2091 2506 2339 
Q 2447 2588 2331 2741 
Q 2216 2894 2048 2961 
Q 1881 3028 1663 3028 
Q 1456 3028 1306 2956 
Q 1156 2884 1056 2725 
Q 956 2566 907 2311 
Q 859 2056 859 1694 
z
" transform="scale(0.015625)"/>
      </defs>
      <use xlink:href="#LiberationSans-48"/>
      <use xlink:href="#LiberationSans-61" transform="translate(72.216797 0)"/>
      <use xlink:href="#LiberationSans-72" transform="translate(127.832031 0)"/>
      <use xlink:href="#LiberationSans-64" transform="translate(161.132812 0)"/>
      <use xlink:href="#LiberationSans-20" transform="translate(216.748047 0)"/>
      <use xlink:href="#LiberationSans-47" transform="translate(244.53125 0)"/>
      <use xlink:href="#LiberationSans-61" transform="translate(322.314453 0)"/>
      <use xlink:href="#LiberationSans-74" transform="translate(377.929688 0)"/>
      <use xlink:href="#LiberationSans-65" transform="translate(405.712891 0)"/>
      <use xlink:href="#LiberationSans-73" transform="translate(461.328125 0)"/>
      <use xlink:href="#LiberationSans-20" transform="translate(511.328125 0)"/>
      <use xlink:href="#LiberationSans-4c" transform="translate(539.111328 0)"/>
      <use xlink:href="#LiberationSans-6f" transform="translate(594.726562 0)"/>
      <use xlink:href="#LiberationSans-73" transform="translate(650.341797 0)"/>
      <use xlink:href="#LiberationSans-73" transform="translate(700.341797 0)"/>
     </g>
    </g>
   </g>
  </g>
 </g>
 <defs>
  <clipPath id="p16c501282a">
   <rect x="45.93" y="40.16" width="663.27" height="352.66"/>
  </clipPath>
 </defs>
</svg>
